<svg viewBox="0 0 100 100" xmlns="http://www.w3.org/2000/svg"><defs><filter color-interpolation-filters="auto" id="a"><feColorMatrix in="SourceGraphic" values="0 0 0 0 1.000000 0 0 0 0 1.000000 0 0 0 0 1.000000 0 0 0 1.000000 0"/></filter></defs><g fill="none" fill-rule="evenodd"><path d="M83.333 0C92.538 0 100 7.462 100 16.667v66.666C100 92.538 92.538 100 83.333 100H16.667C7.462 100 0 92.538 0 83.333V16.667C0 7.462 7.462 0 16.667 0h66.666zM71.715 35.123a1.007 1.007 0 0 0-1.312.23l-.078.112a1.007 1.007 0 0 0-.143.517v8.785H29.818v-8.785a1.007 1.007 0 0 0-1.636-.786L10.66 49.214a1.007 1.007 0 0 0 0 1.572l17.522 14.018a1.007 1.007 0 0 0 1.636-.786v-9.18h40.364v9.18l.006.11a1.007 1.007 0 0 0 1.63.676L89.34 50.786l.094-.085a1.007 1.007 0 0 0-.094-1.487L71.818 35.196z" fill="#1F1F1F"/></g></svg>
