<svg viewBox="0 0 100 100" xmlns="http://www.w3.org/2000/svg"><g transform="translate(8.333 8.333)" fill="#1F1F1F" fill-rule="evenodd"><path d="M8.333 58.333v11.111a5.557 5.557 0 0 0 4.735 5.496l.82.06H25L25 83.333H13.889C6.219 83.333 0 77.115 0 69.444v-11.11l8.333-.001zm75 0v11.111c0 7.671-6.218 13.89-13.889 13.89h-11.11L58.332 75h11.111a5.557 5.557 0 0 0 5.496-4.735l.06-.82V58.332h8.333zM69.444 0c7.671 0 13.89 6.218 13.89 13.889V25H75V13.889a5.557 5.557 0 0 0-4.735-5.495l-.82-.06-11.112-.001V0h11.111zM25 8.333H13.889a5.557 5.557 0 0 0-5.495 4.735l-.06.82L8.332 25H0V13.889C0 6.219 6.218 0 13.889 0H25v8.333z" fill-rule="nonzero"/><rect x="16.667" y="29.167" width="50" height="25" rx=".833"/></g></svg>
