<svg viewBox="0 0 100 100" xmlns="http://www.w3.org/2000/svg"><g fill="#1F1F1F" fill-rule="evenodd"><path d="M83.333 0C92.538 0 100 7.462 100 16.667v66.666C100 92.538 92.538 100 83.333 100H16.667C7.462 100 0 92.538 0 83.333V16.667C0 7.462 7.462 0 16.667 0h66.666zm0 8.333H16.667a8.335 8.335 0 0 0-8.278 7.362l-.056.972v66.666a8.335 8.335 0 0 0 7.362 8.278l.972.056h66.666a8.335 8.335 0 0 0 8.278-7.362l.056-.972V16.667a8.335 8.335 0 0 0-7.362-8.278l-.972-.056z" fill-rule="nonzero"/><path d="M16.667 16.667H25v25h-8.333zM33.333 16.667h8.333v50h-8.333zM50 16.667h8.333V50H50z"/></g></svg>
