<?xml version="1.0" encoding="utf-8"?>
<!-- Generator: Adobe Illustrator 24.0.0, SVG Export Plug-In . SVG Version: 6.00 Build 0)  -->
<svg version="1.1" id="图层_1" xmlns="http://www.w3.org/2000/svg" xmlns:xlink="http://www.w3.org/1999/xlink" x="0px" y="0px"
	 viewBox="0 0 100 100" style="enable-background:new 0 0 100 100;" xml:space="preserve">
<path d="M90.3,60.3c0.5-2.7,0.9-5.4,0.9-8.3c0-18.2-11.9-33.7-28.3-39.1c-2-5.2-7-8.9-12.8-8.9S39.1,7.8,37.2,13
	C20.7,18.4,8.9,33.9,8.9,52.1c0,2.8,0.3,5.6,0.9,8.3C5.2,62.6,2,67.2,2,72.7c0,7.6,6.2,13.7,13.7,13.7c3,0,5.8-1,8-2.6
	c7.1,5.9,16.3,9.5,26.2,9.5c10,0,19.1-3.6,26.2-9.5c2.3,1.6,5,2.6,8,2.6c7.6,0,13.7-6.2,13.7-13.7C98,67.2,94.8,62.6,90.3,60.3z
	 M50,10.9c3.8,0,6.9,3.1,6.9,6.9s-3.1,6.9-6.9,6.9s-6.9-3.1-6.9-6.9S46.2,10.9,50,10.9z M15.7,79.5c-3.8,0-6.9-3.1-6.9-6.9
	s3.1-6.9,6.9-6.9s6.9,3.1,6.9,6.9S19.5,79.5,15.7,79.5z M28.1,78.4c0.8-1.8,1.3-3.7,1.3-5.8c0-7.3-5.8-13.3-13-13.7
	c-0.5-2.2-0.7-4.5-0.7-6.9c0-14.1,8.6-26.3,20.8-31.5c1.3,6.2,6.8,11,13.4,11c6.6,0,12.2-4.7,13.4-11c12.2,5.2,20.8,17.4,20.8,31.5
	c0,2.4-0.3,4.7-0.7,6.9c-7.2,0.4-13,6.4-13,13.7c0,2.1,0.5,4,1.3,5.8c-5.9,4.9-13.6,7.9-21.9,7.9C41.7,86.4,34.1,83.4,28.1,78.4z
	 M84.3,79.5c-3.8,0-6.9-3.1-6.9-6.9s3.1-6.9,6.9-6.9s6.9,3.1,6.9,6.9S88.1,79.5,84.3,79.5z"/>
</svg>
