<svg viewBox="0 0 100 100" xmlns="http://www.w3.org/2000/svg"><path d="M12.5 5.034h75v8.333h-75V5.034zm58.333 25c9.205 0 16.667 7.462 16.667 16.666v16.667c0 9.205-7.462 16.667-16.667 16.667H37.432v14.1a.833.833 0 0 1-1.354.65L13.245 76.518a.833.833 0 0 1 0-1.302l7.587-6.069V38.375h.001v30.771L36.078 56.95a.833.833 0 0 1 1.354.65v14.106l33.401-.006a8.335 8.335 0 0 0 8.278-7.361l.056-.972V46.7a8.335 8.335 0 0 0-7.362-8.277l-.972-.056-50 .008v-.008H12.5v-8.333h58.333z" fill="#1F1F1F" fill-rule="nonzero"/></svg>
