<svg width="100" height="100" viewBox="0 0 100 100" xmlns="http://www.w3.org/2000/svg"><g fill="#1F1F1F" fill-rule="evenodd"><path d="M10 90V75h2.5v12.5h10V90H10zm22.5-2.5V90h-5v-2.5h5zm10 0V90h-5v-2.5h5zm10 0V90h-5v-2.5h5zm10 0V90h-5v-2.5h5zm10 0V90h-5v-2.5h5zM90 75v15H77.5v-2.5h10V75H90zm0-10v5h-2.5v-5H90zm-77.5 0v5H10v-5h2.5zM90 55v5h-2.5v-5H90zm-77.5 0v5H10v-5h2.5zM90 45v5h-2.5v-5H90zm-77.5 0v5H10v-5h2.5zM90 35v5h-2.5v-5H90zm-77.5 0v5H10v-5h2.5zM90 25v5h-2.5v-5H90zm-77.5 0v5H10v-5h2.5zM90 10v10h-2.5v-7.5h-10V10H90zm-67.5 0v2.5h-10V20H10V10h12.5zm10 0v2.5h-5V10h5zm10 0v2.5h-5V10h5zm10 0v2.5h-5V10h5zm10 0v2.5h-5V10h5zm10 0v2.5h-5V10h5z"/><path d="M62.5 85v7.5h-25V85h25zM15 35v25H7.5V35H15zm77.5 0v25H85V35h7.5zm-30-27.5V15h-25V7.5h25z"/></g></svg>