<svg width="100" height="100" viewBox="0 0 100 100" xmlns="http://www.w3.org/2000/svg"><g stroke="#1F1F1F" stroke-width="7.143" fill="none" fill-rule="evenodd"><g transform="translate(7.143 14.286)"><path d="M19.805 19.286V75H7.792a4.208 4.208 0 0 1-2.984-1.236 4.208 4.208 0 0 1-1.237-2.985V23.506c0-1.165.473-2.22 1.237-2.984a4.208 4.208 0 0 1 2.984-1.236h12.013z"/><rect x="34.74" y="19.286" width="16.234" height="55.714" rx="7.792"/><path d="M11.688 21.429V7.792A7.792 7.792 0 0 1 19.481 0h46.753a7.792 7.792 0 0 1 7.792 7.792V21.43"/><path d="M77.922 19.286c1.166 0 2.22.472 2.985 1.236a4.208 4.208 0 0 1 1.236 2.984V70.78c0 1.166-.473 2.221-1.236 2.985A4.208 4.208 0 0 1 77.922 75H65.91V19.286z"/></g><path d="M49.675 17.857h1v8.57h-1z"/></g></svg>