<svg width="100" height="100" viewBox="0 0 100 100" xmlns="http://www.w3.org/2000/svg"><g fill="#1F1F1F" fill-rule="nonzero"><path d="M28.027 41.505c.536 0 1.068.016 1.596.047l4.093 9.348a18.24 18.24 0 0 0-5.689-.904c-10.082 0-18.256 8.174-18.256 18.257 0 10.082 8.174 18.256 18.256 18.256 9.517 0 17.332-7.281 18.18-16.577l3.117 5.284 3.33 3.492C48.584 88.285 39.09 95 28.027 95 13.255 95 1.28 83.025 1.28 68.253c0-14.773 11.975-26.748 26.747-26.748z"/><path d="M72.029 41.375h-.058c14.773 0 26.749 11.976 26.749 26.749 0 14.773-11.976 26.75-26.75 26.75-14.772 0-26.748-11.977-26.748-26.75 0-4.48 1.1-8.702 3.047-12.41l3.244 1.435 6.294-.546a18.182 18.182 0 0 0-4.093 11.521c0 10.083 8.174 18.257 18.257 18.257 10.083 0 18.257-8.174 18.257-18.257 0-10.083-8.174-18.257-18.257-18.257-1.785 0-3.51.256-5.14.733l5.198-9.225z"/><path d="M50.058 5C64.83 5 76.805 16.975 76.805 31.747c0 14.773-11.975 26.748-26.747 26.748-14.773 0-26.748-11.975-26.748-26.748C23.31 16.975 35.285 5 50.058 5zm0 7.867c-10.428 0-18.881 8.453-18.881 18.88 0 10.428 8.453 18.881 18.88 18.881 10.428 0 18.881-8.453 18.881-18.88 0-10.428-8.453-18.881-18.88-18.881z"/></g></svg>