
<svg viewBox="0 0 1024 1024" data-icon="fast-forward" width="1em" height="1em" fill="currentColor" aria-hidden="true">
    <g id="页面-1" stroke="none" stroke-width="1" fill="none" fill-rule="evenodd">
        <g id="编组-6备份">
            <rect id="矩形" fill="#D8D8D8" opacity="0" x="0" y="0" width="18" height="18"></rect>
            <path d="M6.09965692,7.84078272 C6.167692,7.84078272 6.23526035,7.84278103 6.30230647,7.84672215 L6.82347574,9.03525623 C6.59571125,8.96055294 6.35240265,8.9201478 6.09965692,8.9201478 C4.81800565,8.9201478 3.779022,9.95913144 3.779022,11.2407827 C3.779022,12.522434 4.81800565,13.5614176 6.09965692,13.5614176 C7.30942071,13.5614176 8.30297574,12.6357179 8.41062625,11.4540143 L8.8067205,12.1259457 L9.23056501,12.5687065 C8.71335443,13.7866273 7.50625503,14.6407827 6.09965692,14.6407827 C4.22188877,14.6407827 2.69965692,13.1185509 2.69965692,11.2407827 C2.69965692,9.36301457 4.22188877,7.84078272 6.09965692,7.84078272 Z" id="形状结合" fill="#1F1F1F" fill-rule="nonzero"></path>
            <path d="M11.6923196,7.82464958 C13.5634005,7.82424657 15.0857226,9.34656864 15.0857226,11.2244481 C15.0857226,13.1023275 13.5634005,14.6246496 11.6855211,14.6246496 C9.80764164,14.6246496 8.28531957,13.1023275 8.28531957,11.2244481 C8.28531957,10.6549872 8.42531017,10.1182229 8.67275479,9.64669178 L9.08502621,9.82933077 L9.88643041,9.75829923 C9.56031928,10.1579841 9.36474862,10.6683771 9.36474862,11.2244481 C9.36474862,12.5061753 10.4037938,13.5452205 11.6855211,13.5452205 C12.9672483,13.5452205 14.0062935,12.5061753 14.0062935,11.2244481 C14.0062935,9.94272084 12.9672483,8.90367562 11.6855211,8.90367562 C11.4583657,8.90367562 11.2388326,8.93631106 11.031355,8.99714897 L11.6923196,7.82464958 Z" id="形状结合" fill="#1F1F1F" fill-rule="nonzero"></path>
            <path d="M8.9,3.70045557 C9.70081289,3.70045557 10.4258129,4.02504913 10.9506097,4.54984591 C11.4754064,5.07464269 11.8,5.79964269 11.8,6.60045557 C11.8,7.40126846 11.4754064,8.12626846 10.9506097,8.65106524 C10.4258129,9.17586202 9.70081289,9.50045557 8.9,9.50045557 C8.09918711,9.50045557 7.37418711,9.17586202 6.84939033,8.65106524 C6.32459356,8.12626846 6,7.40126846 6,6.60045557 C6,5.79964269 6.32459356,5.07464269 6.84939033,4.54984591 C7.37418711,4.02504913 8.09918711,3.70045557 8.9,3.70045557 Z" id="椭圆形" stroke="#1F1F1F"></path>
        </g>
    </g>
</svg>