<svg id="_1" xmlns="http://www.w3.org/2000/svg" viewBox="0 0 100 100"><style>.st1{fill:#fff}</style><circle cx="67.5" cy="67.5" r="25" fill-rule="evenodd" clip-rule="evenodd" fill="#f5e770"/><path class="st1" d="M67.5 95C52.3 95 40 82.7 40 67.5S52.3 40 67.5 40 95 52.3 95 67.5 82.7 95 67.5 95zm0-50C55.1 45 45 55.1 45 67.5S55.1 90 67.5 90 90 79.9 90 67.5 79.9 45 67.5 45z"/><circle cx="50" cy="32.5" r="25" fill-rule="evenodd" clip-rule="evenodd" fill="#95a9f8"/><circle cx="50" cy="32.5" r="25" fill-rule="evenodd" clip-rule="evenodd" fill="none" stroke="#fff" stroke-width="5"/><circle cx="32.5" cy="67.5" r="25" fill-rule="evenodd" clip-rule="evenodd" fill="#ff8484"/><path class="st1" d="M32.5 95C17.3 95 5 82.7 5 67.5S17.3 40 32.5 40 60 52.3 60 67.5 47.7 95 32.5 95zm0-50C20.1 45 10 55.1 10 67.5S20.1 90 32.5 90 55 79.9 55 67.5 44.9 45 32.5 45z"/></svg>