
<svg viewBox="0 0 1024 1024" data-icon="fast-forward" width="1em" height="1em" fill="currentColor" aria-hidden="true">
    <g id="页面-1" stroke="none" stroke-width="1" fill="none" fill-rule="evenodd">
        <g id="编组-15" transform="translate(1.000000, 1.000000)">
            <g id="编组" opacity="0" stroke-width="0.5">
                <g id="线">
                    <rect id="Rectangle-6-Copy" stroke="#A7B4C5" x="0.25" y="0.25" width="17.5" height="17.5"></rect>
                    <polygon id="Rectangle-57" stroke="#A7B4C5" transform="translate(9.000000, 9.000000) rotate(-270.000000) translate(-9.000000, -9.000000) " points="6 1.5 12 1.5 12 16.5 6 16.5"></polygon>
                    <polygon id="Rectangle-57-Copy-2" stroke="#A7B4C5" points="6 1.5 12 1.5 12 16.5 6 16.5"></polygon>
                    <polygon id="Rectangle-57-Copy-2备份" stroke="#A7B4C5" points="6 1.5 12 1.5 12 16.5 6 16.5"></polygon>
                    <line x1="0.409090909" y1="0.409090909" x2="17.5909091" y2="17.5909091" id="Path-7" stroke="#A7B4C5"></line>
                    <line x1="0.409090909" y1="0.409090909" x2="17.5909091" y2="17.5909091" id="Path-7-Copy" stroke="#A7B4C5" transform="translate(9.000000, 9.000000) scale(-1, 1) translate(-9.000000, -9.000000) "></line>
                    <rect id="Rectangle-6-Copy-7" stroke="#A7B4C5" x="3" y="1.5" width="12" height="15" rx="1.81818182"></rect>
                    <rect id="Rectangle-6-Copy-8" stroke="#A7B4C5" x="1.5" y="3.05172414" width="15" height="11.8965517" rx="1.81818182"></rect>
                    <path d="M4.58080473,2.25 L13.4191953,2.25 C14.2296669,2.25 14.5235634,2.33438692 14.8198597,2.49284791 C15.116156,2.65130891 15.3486911,2.88384397 15.5071521,3.18014027 C15.6656131,3.47643657 15.75,3.77033315 15.75,4.58080473 L15.75,13.4191953 C15.75,14.2296669 15.6656131,14.5235634 15.5071521,14.8198597 C15.3486911,15.116156 15.116156,15.3486911 14.8198597,15.5071521 C14.5235634,15.6656131 14.2296669,15.75 13.4191953,15.75 L4.58080473,15.75 C3.77033315,15.75 3.47643657,15.6656131 3.18014027,15.5071521 C2.88384397,15.3486911 2.65130891,15.116156 2.49284791,14.8198597 C2.33438692,14.5235634 2.25,14.2296669 2.25,13.4191953 L2.25,4.58080473 C2.25,3.77033315 2.33438692,3.47643657 2.49284791,3.18014027 C2.65130891,2.88384397 2.88384397,2.65130891 3.18014027,2.49284791 C3.47643657,2.33438692 3.77033315,2.25 4.58080473,2.25 Z" id="Rectangle-6-Copy-3" stroke="#000000"></path>
                    <circle id="Oval-23" stroke="#000000" cx="9" cy="9" r="7.5"></circle>
                </g>
            </g>
            <path d="M4.51881736,2.88061409 L12.8958866,3.63452922 C13.3187317,3.67348206 13.6970745,3.86142174 13.9784713,4.14541961 C14.2598681,4.42941747 14.4443188,4.80947351 14.4793796,5.23265906 L14.4793796,5.23265906 L15.145962,13.2783589 C15.1858622,13.7599581 15.0267785,14.212137 14.73732,14.5538912 C14.4336637,14.9124082 13.9865295,15.1494023 13.4751252,15.1713553 L13.4751252,15.1713553 L5.23517686,14.469155 C4.81482749,14.4325952 4.43745796,14.2486495 4.15507076,13.9688448 C3.87268355,13.6890402 3.68527868,13.3133765 3.64485864,12.8933807 L3.64485864,12.8933807 L2.86557841,4.7960527 C2.8192848,4.31502604 2.97234838,3.86077394 3.25724202,3.5152051 C3.55760814,3.15086854 4.00451245,2.90734091 4.51881736,2.88061409 L4.51881736,2.88061409 Z" id="矩形" stroke="#1F1F1F" stroke-width="1.5" transform="translate(8.996412, 9.021817) rotate(45.000000) translate(-8.996412, -9.021817) "></path>
            <path d="M8.99641229,6.73248113 C9.61773264,6.73248113 10.1802326,6.98432096 10.5874026,7.39149087 C10.9945725,7.79866078 11.2464123,8.36116078 11.2464123,8.98248113 C11.2464123,9.60380147 10.9945725,10.1663015 10.5874026,10.5734714 C10.1802326,10.9806413 9.61773264,11.2324811 8.99641229,11.2324811 C8.37509195,11.2324811 7.81259195,10.9806413 7.40542203,10.5734714 C6.99825212,10.1663015 6.74641229,9.60380147 6.74641229,8.98248113 C6.74641229,8.36116078 6.99825212,7.79866078 7.40542203,7.39149087 C7.81259195,6.98432096 8.37509195,6.73248113 8.99641229,6.73248113 Z" id="椭圆形" stroke="#1F1F1F" stroke-width="1.5"></path>
        </g>
    </g>
</svg>