<svg xmlns="http://www.w3.org/2000/svg" width="11.81" height="13.38" viewBox="0 0 11.81 13.38">
  <path d="M14,8.21l-4.14-5a1.3,1.3,0,0,0-1-.34A1.33,1.33,0,0,0,8,3.4L4,8.21a1.39,1.39,0,0,0-.3.86A1.32,1.32,0,0,0,4,9.93l4.09,4.85A1.34,1.34,0,0,0,10,14.66l4-4.72a1.41,1.41,0,0,0,.32-.87A1.4,1.4,0,0,0,14,8.21Zm-3.82,2a1.73,1.73,0,0,1-1.22.5A1.72,1.72,0,0,1,7.27,9,1.74,1.74,0,0,1,9,7.26,1.72,1.72,0,0,1,10.72,9,1.75,1.75,0,0,1,10.22,10.21Z"  fill="none" stroke="currentColor" stroke-miterlimit="10" stroke-width="1.15"/>
</svg>
