<svg width="100" height="100" viewBox="0 0 100 100" xmlns="http://www.w3.org/2000/svg"><g fill="#1F1F1F" fill-rule="evenodd"><path d="M89.167 10.833A7.833 7.833 0 0 1 97 18.667v62.666a7.833 7.833 0 0 1-7.833 7.834H10.833A7.833 7.833 0 0 1 3 81.333V18.667a7.833 7.833 0 0 1 7.833-7.834h78.334zm-2.919 5.403H13.752a5.222 5.222 0 0 0-5.223 5.222v57.084a5.222 5.222 0 0 0 5.223 5.222h72.496a5.222 5.222 0 0 0 5.223-5.222V21.458a5.222 5.222 0 0 0-5.223-5.222z"/><path d="M73.5 27.806a5.222 5.222 0 0 1 5.222 5.222v33.944a5.222 5.222 0 0 1-5.222 5.222h-47a5.222 5.222 0 0 1-5.222-5.222V33.028a5.222 5.222 0 0 1 5.222-5.222h47zm-2.611 5.222H29.11a2.611 2.611 0 0 0-2.611 2.61v28.723a2.611 2.611 0 0 0 2.611 2.611H70.89a2.611 2.611 0 0 0 2.611-2.61V35.638a2.611 2.611 0 0 0-2.611-2.611z"/></g></svg>