<svg width="100" height="100" viewBox="0 0 100 100" xmlns="http://www.w3.org/2000/svg"><g fill="#1F1F1F" fill-rule="nonzero"><path d="M32.5 9.375v6.25h-15c-.986 0-1.795.761-1.87 1.728l-.005.147v15h-6.25v-15a8.125 8.125 0 0 1 7.877-8.121l.248-.004h15zM32.5 90v-6.25h-15a1.875 1.875 0 0 1-1.87-1.728l-.005-.147v-15h-6.25v15a8.125 8.125 0 0 0 7.877 8.121L17.5 90h15zM69.375 9.375v6.25h15c.986 0 1.795.761 1.87 1.728l.005.147v15h6.25v-15a8.125 8.125 0 0 0-7.877-8.121l-.248-.004h-15zM69.375 90v-6.25h15c.986 0 1.795-.761 1.87-1.728l.005-.147v-15h6.25v15a8.125 8.125 0 0 1-7.877 8.121l-.248.004h-15z"/></g></svg>