
<svg viewBox="0 0 1024 1024" data-icon="fast-forward" width="1em" height="1em" fill="currentColor" aria-hidden="true">
    <g id="页面-1" stroke="none" stroke-width="1" fill="none" fill-rule="evenodd">
        <g id="编组-4">
            <polygon id="矩形" fill="#D8D8D8" opacity="0" points="0 5.1159077e-13 18 5.1159077e-13 18 18 0 18"></polygon>
            <path d="M8.99240514,4.23960467 C10.3040814,4.23960467 11.4915814,4.77126653 12.3511623,5.63084746 C13.2107433,6.49042839 13.7424051,7.67792839 13.7424051,8.98960467 C13.7424051,10.301281 13.2107433,11.488781 12.3511623,12.3483619 C11.4915814,13.2079428 10.3040814,13.7396047 8.99240514,13.7396047 C7.68072886,13.7396047 6.49322886,13.2079428 5.63364793,12.3483619 C4.774067,11.488781 4.24240514,10.301281 4.24240514,8.98960467 C4.24240514,7.67792839 4.774067,6.49042839 5.63364793,5.63084746 C6.49322886,4.77126653 7.68072886,4.23960467 8.99240514,4.23960467 Z" id="椭圆形备份" stroke="#1F1F1F"></path>
            <g id="编组-3" transform="translate(8.931626, 9.132969) rotate(-150.000000) translate(-8.931626, -9.132969) translate(5.931626, 4.132969)" stroke="#1F1F1F">
                <line x1="2.73167847" y1="0.320424071" x2="0.407567856" y2="8.99412297" id="路径备份"></line>
                <line x1="5.49611433" y1="1.4456456" x2="3.2980894" y2="9.6487863" id="路径备份-2"></line>
            </g>
        </g>
    </g>
</svg>