<svg width="100" height="100" viewBox="0 0 100 100" xmlns="http://www.w3.org/2000/svg"><g stroke="#1F1F1F" stroke-width="8.378" fill="none" fill-rule="evenodd"><path d="M49.958 9.804c10.99 0 20.938 4.454 28.14 11.656C85.3 28.662 89.754 38.611 89.754 49.6c0 10.99-4.454 20.939-11.656 28.14-7.202 7.202-17.15 11.657-28.14 11.657-10.99 0-20.939-4.455-28.14-11.656-7.202-7.202-11.656-17.151-11.656-28.14 0-10.99 4.454-20.94 11.656-28.14 7.201-7.203 17.15-11.657 28.14-11.657zM31.792 85.88L84.99 32.68M16.448 66.135L66.76 15.822"/></g></svg>