
<svg viewBox="0 0 1024 1024" data-icon="fast-forward" width="1em" height="1em" fill="currentColor" aria-hidden="true">
    <g id="页面-1" stroke="none" stroke-width="1" fill="none" fill-rule="evenodd">
        <g id="编组-10">
            <rect id="矩形" fill="#D8D8D8" opacity="0" x="0" y="0" width="18" height="18"></rect>
            <rect id="矩形" fill="#1F1F1F" x="1.5" y="11.396092" width="1.5" height="4.5"></rect>
            <rect id="矩形备份-2" fill="#1F1F1F" x="15" y="11.396092" width="1.5" height="4.5"></rect>
            <polygon id="矩形备份" fill="#1F1F1F" transform="translate(3.000000, 15.149050) rotate(-270.000000) translate(-3.000000, -15.149050) " points="2.2529583 13.6490503 3.7470417 13.6490503 3.7470417 16.6490503 2.2529583 16.6490503"></polygon>
            <polygon id="矩形备份-3" fill="#1F1F1F" transform="translate(15.000000, 15.149050) rotate(-270.000000) translate(-15.000000, -15.149050) " points="14.2529583 13.6490503 15.7470417 13.6490503 15.7470417 16.6490503 14.2529583 16.6490503"></polygon>
            <polygon id="矩形" fill="#1F1F1F" points="7.5 14.4079252 10.5 14.4079252 10.5 15.896092 7.5 15.896092"></polygon>
            <rect id="矩形" fill="#1F1F1F" transform="translate(2.250000, 3.146092) scale(1, -1) translate(-2.250000, -3.146092) " x="1.5" y="0.896091982" width="1.5" height="4.5"></rect>
            <rect id="矩形备份-2" fill="#1F1F1F" transform="translate(15.750000, 3.146092) scale(1, -1) translate(-15.750000, -3.146092) " x="15" y="0.896091982" width="1.5" height="4.5"></rect>
            <rect id="矩形备份" fill="#1F1F1F" transform="translate(3.000000, 1.647452) scale(1, -1) rotate(-270.000000) translate(-3.000000, -1.647452) " x="2.24864042" y="0.147451557" width="1.50271915" height="3"></rect>
            <rect id="矩形备份-3" fill="#1F1F1F" transform="translate(15.000000, 1.647452) scale(1, -1) rotate(-270.000000) translate(-15.000000, -1.647452) " x="14.2486404" y="0.147451557" width="1.50271915" height="3"></rect>
            <rect id="矩形" fill="#1F1F1F" transform="translate(9.000000, 1.647452) scale(1, -1) translate(-9.000000, -1.647452) " x="7.5" y="0.896091982" width="3" height="1.50271915"></rect>
            <rect id="矩形" fill="#1F1F1F" x="1.5" y="6.89609198" width="1.5" height="3"></rect>
            <rect id="矩形备份-4" fill="#1F1F1F" x="15" y="6.89609198" width="1.5" height="3"></rect>
        </g>
    </g>
</svg>