<svg width="100" height="100" xmlns="http://www.w3.org/2000/svg"><g fill="#1F1F1F" fill-rule="evenodd"><path d="M8.333 66.65h8.333v25H8.333zM83.333 66.65h8.333v25h-8.333z"/><path d="M25 83.35v8.3H8.333v-8.3zM91.667 83.35v8.3H75v-8.3zM41.667 83.383h16.666v8.267H41.667zM8.333 33.317h8.333v-25H8.333zM83.333 33.317h8.333v-25h-8.333z"/><path d="M25 16.666V8.318H8.333v8.348zM91.666 16.665V8.317H75v8.348zM41.667 16.665h16.667V8.317H41.667zM8.333 41.65h8.333v16.667H8.333zM83.333 41.65h8.333v16.667h-8.333z"/></g></svg>