<svg width="100" height="100" xmlns="http://www.w3.org/2000/svg"><g stroke="#1F1F1F" stroke-width="7.077" fill="none" fill-rule="evenodd"><path d="M35.965 21.627c7.817 0 14.894 3.169 20.017 8.291 5.123 5.123 8.291 12.2 8.291 20.017s-3.168 14.894-8.291 20.017c-5.123 5.122-12.2 8.29-20.017 8.29-7.816 0-14.893-3.168-20.016-8.29-5.123-5.123-8.291-12.2-8.291-20.017s3.168-14.894 8.29-20.017c5.124-5.122 12.2-8.29 20.017-8.29Z"/><path d="M64.273 21.627c7.817 0 14.894 3.169 20.017 8.291 5.122 5.123 8.29 12.2 8.29 20.017s-3.168 14.894-8.29 20.017c-5.123 5.122-12.2 8.29-20.017 8.29s-14.894-3.168-20.016-8.29c-5.123-5.123-8.292-12.2-8.292-20.017s3.169-14.894 8.292-20.017c5.122-5.122 12.2-8.29 20.016-8.29Z"/></g></svg>