
<svg viewBox="0 0 1024 1024" data-icon="fast-forward" width="1em" height="1em" fill="currentColor" aria-hidden="true">
    <g id="页面-1" stroke="none" stroke-width="1" fill="none" fill-rule="evenodd">
        <g id="下载" transform="translate(-1.000000, -2.000000)">
            <g id="编组" transform="translate(2.700000, 2.072275)">
                <path d="M12.6,9.97393899 L12.6,12.3277254 C12.6,12.8247816 12.1970563,13.2277254 11.7,13.2277254 L0.9,13.2277254 C0.402943725,13.2277254 0,12.8247816 0,12.3277254 L0,9.97393899" id="路径" stroke="#1F1F1F" stroke-width="1.5"></path>
                <rect id="矩形" fill="#1F1F1F" x="5.55" y="0" width="1.5" height="9"></rect>
                <path d="M6.37071068,7.98837039 L8.97795478,10.5956145 C9.01700721,10.6346669 9.01700721,10.6979834 8.97795478,10.7370359 C8.95920115,10.7557895 8.93376575,10.7663252 8.90724411,10.7663252 L3.69275589,10.7663252 C3.63752742,10.7663252 3.59275589,10.7215537 3.59275589,10.6663252 C3.59275589,10.6398035 3.60329158,10.6143681 3.62204522,10.5956145 L6.22928932,7.98837039 C6.26834175,7.94931796 6.33165825,7.94931796 6.37071068,7.98837039 Z" id="三角形" fill="#1F1F1F" transform="translate(6.300000, 9.341992) scale(1, -1) translate(-6.300000, -9.341992) "></path>
            </g>
        </g>
    </g>
</svg>