<svg width="100" height="100" viewBox="0 0 100 100" xmlns="http://www.w3.org/2000/svg"><g fill="#1F1F1F" fill-rule="evenodd"><path d="M67.609 6.957c10.657 0 19.325 8.52 19.56 19.122l.005.443v46.956c0 10.658-8.521 19.325-19.122 19.56l-.443.005H5v-7.826h62.609c6.363 0 11.544-5.063 11.733-11.38l.006-.359V26.522c0-6.364-5.063-11.544-11.38-11.734l-.36-.005H5V6.957h62.609z" fill-rule="nonzero"/><path fill-rule="nonzero" d="M73.633 46.74v6.52H5v-6.52z"/><path d="M83.26 61.74C89.745 61.74 95 56.482 95 50c0-6.483-5.256-11.74-11.74-11.74-6.482 0-11.738 5.257-11.738 11.74 0 6.483 5.256 11.74 11.739 11.74z"/></g></svg>