<svg width="100" height="100" viewBox="0 0 100 100" xmlns="http://www.w3.org/2000/svg" xmlns:xlink="http://www.w3.org/1999/xlink"><defs><path id="a" d="M0 0h100v100H0z"/></defs><g fill="none" fill-rule="evenodd"><mask id="b" fill="#fff"><use xlink:href="#a"/></mask><g fill="#1F1F1F" fill-rule="nonzero" mask="url(#b)"><path d="M6.09 5.587h.172L25.194 7.69a.78.78 0 0 1 .465 1.327l-5.539 5.538 26.434 26.433-5.516 5.517-26.434-26.433-5.773 5.773a.78.78 0 0 1-1.327-.465L5.4 6.448a.78.78 0 0 1 .69-.861zM93.91 5.587h-.172L74.806 7.69a.78.78 0 0 0-.465 1.327l5.163 5.162L53.07 40.612l5.892 5.893 26.434-26.433 5.773 5.773a.78.78 0 0 0 1.327-.465L94.6 6.448a.78.78 0 0 0-.69-.861z"/><g><path d="M6.09 94.413h.172l18.932-2.103a.78.78 0 0 0 .465-1.327l-5.539-5.538 26.434-26.433-5.516-5.517-26.434 26.433-5.773-5.773a.78.78 0 0 0-1.327.465L5.4 93.552a.78.78 0 0 0 .69.861zM93.91 94.413h-.172L74.806 92.31a.78.78 0 0 1-.465-1.327l5.539-5.538-26.434-26.433 5.516-5.517 26.434 26.433 5.773-5.773a.78.78 0 0 1 1.327.465L94.6 93.552a.78.78 0 0 1-.69.861z"/></g></g></g></svg>