
<svg viewBox="0 0 50 50" data-icon="fast-forward" width="1em" height="1em" fill="currentColor" aria-hidden="true">
    <g id="页面-1" stroke="none" stroke-width="1" fill="none" fill-rule="evenodd">
        <g id="编组-4">
            <g id="编组-6">
                <rect id="矩形" stroke="#979797" fill="#D8D8D8" opacity="0" x="0.5" y="0.5" width="17" height="17"></rect>
                <path d="M9.01859164,4.81247232 C11.1009391,4.81247232 12.9973176,5.92042226 14.734533,8.06782173 C14.954868,8.34119168 15.0656314,8.67269806 15.0666463,9.00454011 C15.0676613,9.33638216 14.9589278,9.66855988 14.7408089,9.94259546 C13.0006483,12.1210983 11.1032166,13.2463373 9.01859164,13.2463373 C6.9339667,13.2463373 5.036535,12.1210983 3.29691424,9.9432725 C3.07825551,9.66855988 2.969522,9.33638216 2.97053695,9.00454011 C2.97155189,8.67269806 3.08231528,8.34119168 3.30208193,8.06852563 C5.03986569,5.92042226 6.93624422,4.81247232 9.01859164,4.81247232 Z" id="椭圆形" stroke="#1F1F1F"></path>
                <ellipse id="椭圆形1" stroke="#1F1F1F" cx="9.05934938" cy="9" rx="1.565" ry="1.56586155"></ellipse>
            </g>
            <g id="编组-2" transform="translate(2.000000, 4.500000)"></g>
        </g>
    </g>
</svg>