<svg width="100" height="100" viewBox="0 0 100 100" xmlns="http://www.w3.org/2000/svg"><g transform="translate(4.103 19.248)" stroke="#1F1F1F" stroke-width="6.554" fill="none" fill-rule="evenodd"><path d="M46 3.277c13.637 0 26.058 7.25 37.435 21.313a9.814 9.814 0 0 1 2.189 6.149 9.806 9.806 0 0 1-2.139 6.156l-.422.526C71.786 51.361 59.49 58.553 46 58.553c-13.658 0-26.09-7.37-37.478-21.65a9.814 9.814 0 0 1-2.146-6.164 9.806 9.806 0 0 1 2.182-6.14l.427-.525C20.249 10.35 32.532 3.277 46 3.277z"/><ellipse cx="46.267" cy="30.722" rx="10.257" ry="10.263"/></g></svg>