<svg width="100" height="100" viewBox="0 0 100 100" xmlns="http://www.w3.org/2000/svg"><g fill="#1F1F1F" fill-rule="evenodd"><path d="M22.353 49.98c0 2.882 2.476 5.22 5.53 5.22 3.053 0 5.529-2.338 5.529-5.22 0-2.884-2.476-5.224-5.53-5.224-3.053 0-5.53 2.34-5.53 5.223zM44.47 49.98c0 2.882 2.477 5.22 5.53 5.22 3.053 0 5.53-2.338 5.53-5.22 0-2.884-2.477-5.224-5.53-5.224-3.053 0-5.53 2.34-5.53 5.223zM66.588 49.98c0 2.882 2.476 5.22 5.53 5.22 3.053 0 5.53-2.338 5.53-5.22 0-2.884-2.477-5.224-5.53-5.224-3.054 0-5.53 2.34-5.53 5.223z"/><path d="M89.167 11.333A7.833 7.833 0 0 1 97 19.167v62.666a7.833 7.833 0 0 1-7.833 7.834H10.833A7.833 7.833 0 0 1 3 81.833V19.167a7.833 7.833 0 0 1 7.833-7.834h78.334zm-2.611 5.223H13.444a5.222 5.222 0 0 0-5.222 5.222v57.444a5.222 5.222 0 0 0 5.222 5.222h73.112a5.222 5.222 0 0 0 5.222-5.222V21.778a5.222 5.222 0 0 0-5.222-5.222z"/></g></svg>