<svg width="100" height="100" xmlns="http://www.w3.org/2000/svg"><g fill="#1F1F1F" fill-rule="nonzero"><path d="M89.337 53.753a7.035 7.035 0 0 1-2.744 2.955L19.808 95.435c-3.283 1.904-7.379.581-9.147-2.955a7.72 7.72 0 0 1-.807-3.447V46.67l79.386-.002a7.757 7.757 0 0 1 .097 7.085Zm-12.214.188H16.608l-.001 35.092L77.123 53.94Z"/><path d="M9.854 46.67V11.578c0-4.016 3.023-7.272 6.753-7.272 1.117 0 2.217.299 3.201.87l66.785 38.727a6.981 6.981 0 0 1 2.648 2.767H77.123L16.607 11.577v35.091H9.855Z" fill-opacity=".303"/></g></svg>