
<svg viewBox="0 0 1024 1024" data-icon="fast-forward" width="1em" height="1em" fill="currentColor" aria-hidden="true">
    <g id="页面-1" stroke="none" stroke-width="1" fill="none" fill-rule="evenodd">
        <g id="模糊" stroke="#1F1F1F" stroke-width="1.5">
            <g id="编组">
                <circle id="椭圆形" cx="9" cy="9" r="8.25"></circle>
                <path d="M1.28835546,12.8965899 L2.96391409,11.2096193 C3.46430979,10.7058154 4.27837436,10.7030526 4.78217819,11.2034483 C4.78604918,11.2072931 4.78989565,11.2111625 4.79371737,11.2150563 L5.5253511,11.960481 C6.02274403,12.4672497 6.83677781,12.4748502 7.34354643,11.9774572 C7.34965895,11.9714578 7.35571137,11.9653974 7.36170278,11.959277 L8.09197817,11.2132819 C8.58870615,10.7058615 9.40272926,10.6971936 9.91014967,11.1939216 C9.91306958,11.19678 9.91597584,11.1996523 9.91886837,11.2025383 L10.6659034,11.9479114 C11.1680691,12.4489598 11.9811603,12.4486216 12.4829089,11.9471555 L13.235893,11.1945955 C13.7385524,10.693582 14.5520963,10.6935063 15.0548488,11.1944263 L16.7167458,12.8547694 L16.7167458,12.8547694" id="路径-2"></path>
            </g>
        </g>
    </g>
</svg>