
<svg viewBox="0 0 1024 1024" data-icon="fast-forward" width="1em" height="1em" fill="currentColor" aria-hidden="true">
    <g id="页面-1" stroke="none" stroke-width="1" fill="none" fill-rule="evenodd">
        <g id="编组-31">
            <rect id="图标容器" fill="#D8D8D8" opacity="0" x="3" y="3" width="12" height="12"></rect>
            <g id="编组">
                <rect id="矩形" fill="#D8D8D8" opacity="0" transform="translate(9.000000, 9.000000) scale(-1, 1) translate(-9.000000, -9.000000) " x="0" y="0" width="18" height="18"></rect>
                <path d="M8.0305878,3.4852131 L8.0305878,8.0305878 L3.45843953,8.0305878 L3.45843953,5.0352131 C3.45843953,4.60719242 3.63192919,4.21969242 3.91242402,3.93919759 C4.19291885,3.65870276 4.58041885,3.4852131 5.00843953,3.4852131 L5.00843953,3.4852131 L8.0305878,3.4852131 Z" id="矩形" stroke="#1F1F1F" stroke-width="0.9"></path>
                <path d="M14.5334296,3.4852131 L14.5334296,8.0305878 L9.9694122,8.0305878 L9.9694122,5.0352131 C9.9694122,4.60719242 10.1429019,4.21969242 10.4233967,3.93919759 C10.7038915,3.65870276 11.0913915,3.4852131 11.5194122,3.4852131 L11.5194122,3.4852131 L14.5334296,3.4852131 Z" id="矩形备份-2" stroke="#1F1F1F" stroke-width="0.9" transform="translate(12.251421, 5.757900) scale(-1, 1) translate(-12.251421, -5.757900) "></path>
                <path d="M8.0305878,9.9694122 L8.0305878,14.5423848 L3.45843953,14.5423848 L3.45843953,11.5194122 C3.45843953,11.0913915 3.63192919,10.7038915 3.91242402,10.4233967 C4.19291885,10.1429019 4.58041885,9.9694122 5.00843953,9.9694122 L5.00843953,9.9694122 L8.0305878,9.9694122 Z" id="矩形备份" stroke="#1F1F1F" stroke-width="0.9" transform="translate(5.744514, 12.255899) scale(1, -1) translate(-5.744514, -12.255899) "></path>
                <path d="M14.5334296,9.9694122 L14.5334296,14.5423848 L9.9694122,14.5423848 L9.9694122,11.5194122 C9.9694122,11.0913915 10.1429019,10.7038915 10.4233967,10.4233967 C10.7038915,10.1429019 11.0913915,9.9694122 11.5194122,9.9694122 L11.5194122,9.9694122 L14.5334296,9.9694122 Z" id="矩形备份-3" stroke="#1F1F1F" stroke-width="0.9" transform="translate(12.251421, 12.255899) scale(-1, -1) translate(-12.251421, -12.255899) "></path>
            </g>
        </g>
    </g>
</svg>