<svg width="100" height="100" viewBox="0 0 100 100" xmlns="http://www.w3.org/2000/svg"><g stroke="#1F1F1F" stroke-width="6.774" fill="none" fill-rule="evenodd"><path d="M42.711 8.464v34.212H8.297V20.13a11.63 11.63 0 0 1 3.418-8.25 11.63 11.63 0 0 1 8.25-3.416H42.71zM57.305 8.464v34.212h34.352V20.13a11.63 11.63 0 0 0-3.417-8.25 11.63 11.63 0 0 0-8.25-3.416H57.306zM42.711 91.69V57.27H8.297v22.753a11.63 11.63 0 0 0 3.418 8.25 11.63 11.63 0 0 0 8.25 3.417H42.71zM57.305 91.69V57.27h34.352v22.753a11.63 11.63 0 0 1-3.417 8.25 11.63 11.63 0 0 1-8.25 3.417H57.306z"/></g></svg>