
<svg viewBox="0 0 50 50" data-icon="fast-forward" width="1em" height="1em" fill="currentColor" aria-hidden="true">
    <g id="页面-1" stroke="none" stroke-width="1" fill="none" fill-rule="evenodd">
        <g id="编组-12">
            <g id="编组" transform="translate(3.000000, 3.000000)">
                <path d="M5.0305878,0.485213104 L5.0305878,5.0305878 L0.458439533,5.0305878 L0.458439533,2.0352131 C0.458439533,1.60719242 0.631929192,1.21969242 0.912424022,0.939197593 C1.19291885,0.658702764 1.58041885,0.485213104 2.00843953,0.485213104 L2.00843953,0.485213104 L5.0305878,0.485213104 Z" id="矩形" stroke="#546BFF" stroke-width="0.9" fill="#546BFF"></path>
                <path d="M11.5334296,0.485213104 L11.5334296,5.0305878 L6.9694122,5.0305878 L6.9694122,2.0352131 C6.9694122,1.60719242 7.14290186,1.21969242 7.42339669,0.939197593 C7.70389152,0.658702764 8.09139152,0.485213104 8.5194122,0.485213104 L8.5194122,0.485213104 L11.5334296,0.485213104 Z" id="矩形备份-2" stroke="#546BFF" stroke-width="0.9" fill="#546BFF" transform="translate(9.251421, 2.757900) scale(-1, 1) translate(-9.251421, -2.757900) "></path>
                <path d="M5.0305878,6.9694122 L5.0305878,11.5423848 L0.458439533,11.5423848 L0.458439533,8.5194122 C0.458439533,8.09139152 0.631929192,7.70389152 0.912424022,7.42339669 C1.19291885,7.14290186 1.58041885,6.9694122 2.00843953,6.9694122 L2.00843953,6.9694122 L5.0305878,6.9694122 Z" id="矩形备份" stroke="#546BFF" stroke-width="0.9" fill="#546BFF" transform="translate(2.744514, 9.255899) scale(1, -1) translate(-2.744514, -9.255899) "></path>
                <path d="M11.5334296,6.9694122 L11.5334296,11.5423848 L6.9694122,11.5423848 L6.9694122,8.5194122 C6.9694122,8.09139152 7.14290186,7.70389152 7.42339669,7.42339669 C7.70389152,7.14290186 8.09139152,6.9694122 8.5194122,6.9694122 L8.5194122,6.9694122 L11.5334296,6.9694122 Z" id="矩形备份-3" stroke="#546BFF" stroke-width="0.9" fill="#546BFF" transform="translate(9.251421, 9.255899) scale(-1, -1) translate(-9.251421, -9.255899) "></path>
            </g>
        </g>
    </g>
</svg>