<svg width="100" height="100" viewBox="0 0 100 100" xmlns="http://www.w3.org/2000/svg"><g fill="none" fill-rule="evenodd"><path fill="#1F1F1F" fill-rule="nonzero" d="M53.985 26.938V73h-7.667V26.938z"/><path d="M50.599 20.02L61.27 33.358a.767.767 0 0 1-.598 1.245H39.328a.767.767 0 0 1-.598-1.245L49.4 20.019a.767.767 0 0 1 1.198 0zM50.599 79.918l10.671-13.34a.767.767 0 0 0-.598-1.245H39.328a.767.767 0 0 0-.598 1.246L49.4 79.919a.767.767 0 0 0 1.198 0z" fill="#1F1F1F"/><path d="M80.667 7.833c3.175 0 6.05 1.288 8.131 3.369a11.464 11.464 0 0 1 3.369 8.131v61.334c0 3.175-1.288 6.05-3.369 8.131a11.464 11.464 0 0 1-8.131 3.369H19.333c-3.175 0-6.05-1.288-8.131-3.369a11.464 11.464 0 0 1-3.369-8.131V19.333c0-3.175 1.288-6.05 3.369-8.131a11.464 11.464 0 0 1 8.131-3.369z" stroke="#1F1F1F" stroke-width="7.667"/></g></svg>