<svg width="100" height="100" viewBox="0 0 100 100" xmlns="http://www.w3.org/2000/svg"><g fill="#1F1F1F" fill-rule="evenodd"><path d="M6.021 11.529h5.936v74.936H6.021zM84.532 11.529h5.936v74.936h-5.936zM26.93 49.648V48.57a2.721 2.721 0 0 1 2.72-2.721h36.225a2.721 2.721 0 0 1 2.721 2.721v1.078a2.721 2.721 0 0 1-2.72 2.721H29.65a2.721 2.721 0 0 1-2.721-2.721z"/><path d="M17.48 48.296l14.5-11.6a.833.833 0 0 1 1.353.651v23.2a.833.833 0 0 1-1.354.65l-14.499-11.6a.833.833 0 0 1 0-1.301zM78.476 48.296l-14.5-11.6a.833.833 0 0 0-1.354.651v23.2a.833.833 0 0 0 1.354.65l14.5-11.6a.833.833 0 0 0 0-1.301z"/></g></svg>