<svg width="100" height="100" viewBox="0 0 100 100" xmlns="http://www.w3.org/2000/svg"><g fill="#1F1F1F" fill-rule="evenodd"><path d="M73.889 5c11.142 0 20.203 8.909 20.45 19.992l.004.463v49.09c0 11.142-8.908 20.204-19.991 20.45l-.463.005H8.434v-8.182H73.89c6.652 0 12.069-5.293 12.267-11.897l.006-.376v-49.09c0-6.653-5.293-12.07-11.898-12.268l-.375-.005H8.434V5H73.89z" fill-rule="nonzero"/><path fill-rule="nonzero" d="M55.756 46.59v6.82H8.549v-6.82z"/><path d="M61.394 62.273c6.778 0 12.273-5.495 12.273-12.273s-5.495-12.273-12.273-12.273S49.122 43.222 49.122 50s5.494 12.273 12.272 12.273z"/></g></svg>