
<svg viewBox="0 0 1024 1024" data-icon="fast-forward" width="1em" height="1em" fill="currentColor" aria-hidden="true">
    <g id="页面-1" stroke="none" stroke-width="1" fill="none" fill-rule="evenodd">
        <g id="编组-7">
            <rect id="矩形" stroke="#979797" fill="#D8D8D8" opacity="0" x="0.5" y="0.5" width="17" height="17"></rect>
            <path d="M7.02147968,4.98830863 C8.12604918,4.98830863 9.12604918,5.43602388 9.84990681,6.1598815 C10.5737644,6.88373913 11.0214797,7.88373913 11.0214797,8.98830863 C11.0214797,10.0928781 10.5737644,11.0928781 9.84990681,11.8167358 C9.12604918,12.5405934 8.12604918,12.9883086 7.02147968,12.9883086 C5.91691018,12.9883086 4.91691018,12.5405934 4.19305256,11.8167358 C3.46919493,11.0928781 3.02147968,10.0928781 3.02147968,8.98830863 C3.02147968,7.88373913 3.46919493,6.88373913 4.19305256,6.1598815 C4.91691018,5.43602388 5.91691018,4.98830863 7.02147968,4.98830863 Z" id="椭圆形" stroke="#1F1F1F"></path>
            <path d="M11.0214797,4.98830863 C12.1260492,4.98830863 13.1260492,5.43602388 13.8499068,6.1598815 C14.5737644,6.88373913 15.0214797,7.88373913 15.0214797,8.98830863 C15.0214797,10.0928781 14.5737644,11.0928781 13.8499068,11.8167358 C13.1260492,12.5405934 12.1260492,12.9883086 11.0214797,12.9883086 C9.91691018,12.9883086 8.91691018,12.5405934 8.19305256,11.8167358 C7.46919493,11.0928781 7.02147968,10.0928781 7.02147968,8.98830863 C7.02147968,7.88373913 7.46919493,6.88373913 8.19305256,6.1598815 C8.91691018,5.43602388 9.91691018,4.98830863 11.0214797,4.98830863 Z" id="椭圆形备份-5" stroke="#1F1F1F"></path>
            <path d="M8.99697323,5.6151862 C6.4792789,7.70394216 6.4792789,9.99315067 8.99697323,12.4828117 C10.4027155,11.5772273 11.1055867,10.4732257 11.1055867,9.17080666 C11.1055867,7.86838765 10.4027155,6.68318084 8.99697323,5.6151862 Z" id="路径-4" fill="#1F1F1F"></path>
        </g>
    </g>
</svg>