<svg width="100" height="100" viewBox="0 0 100 100" xmlns="http://www.w3.org/2000/svg"><path d="M86.563 5A8.437 8.437 0 0 1 95 13.438v73.124A8.437 8.437 0 0 1 86.562 95H13.439A8.437 8.437 0 0 1 5 86.562V13.439A8.437 8.437 0 0 1 13.438 5h73.124zM27.5 33.125H10.625V83.75c0 3.033 2.4 5.505 5.404 5.62l.221.005H27.5v-56.25zm61.875 0h-56.25v56.25H83.75c3.033 0 5.505-2.4 5.62-5.404l.005-.221V33.125zm-5.625-22.5h-67.5a5.625 5.625 0 0 0-5.62 5.404l-.005.221V27.5h78.75V16.25a5.625 5.625 0 0 0-5.625-5.625z" fill="#1F1F1F" fill-rule="evenodd"/></svg>