
<svg viewBox="0 0 50 50" data-icon="fast-forward" width="1em" height="1em" fill="currentColor" aria-hidden="true">
    <g id="页面-1" stroke="none" stroke-width="1" fill="none" fill-rule="evenodd">
        <g id="编组-3">
            <rect id="图标容器" fill="#D8D8D8" opacity="0" x="0" y="0" width="18" height="18"></rect>
            <g id="编组-2">
                <g id="编组" transform="translate(2.836779, 1.125215)" fill="#1F1F1F">
                    <polygon id="矩形备份" transform="translate(6.000000, 0.750000) rotate(-270.000000) translate(-6.000000, -0.750000) " points="5.46571815 -5.25 6.53428185 -5.25 6.53428185 6.75 5.46571815 6.75"></polygon>
                    <polygon id="矩形备份-2" transform="translate(6.000000, 14.424325) rotate(-270.000000) translate(-6.000000, -14.424325) " points="5.46571815 8.4243253 6.53428185 8.4243253 6.53428185 20.4243253 5.46571815 20.4243253"></polygon>
                    <path d="M2.3883228,12.5092595 L3.581222,9.70353096 L8.7295238,9.70353096 L9.922423,12.5092595 L11.3193707,12.5092595 L6.90878292,2.49280867 L5.41765892,2.49280867 L1.0070711,12.5092595 L2.3883228,12.5092595 Z M8.3214267,8.73555462 L3.98931909,8.73555462 L6.13967686,3.72732922 L6.20246102,3.72732922 L8.3214267,8.73555462 Z" id="A" fill-rule="nonzero"></path>
                </g>
            </g>
        </g>
    </g>
</svg>