
<svg viewBox="0 0 1024 1024" data-icon="fast-forward" width="1em" height="1em" fill="currentColor" aria-hidden="true">
    <g id="页面-1" stroke="none" stroke-width="1" fill="none" fill-rule="evenodd">
        <g id="编组-3">
            <rect id="图标容器" fill="#D8D8D8" opacity="0" x="0" y="0" width="18" height="18"></rect>
            <g id="编组-2">
                <g id="编组" opacity="0" stroke-width="0.5">
                    <g id="线">
                        <rect id="Rectangle-6-Copy" stroke="#A7B4C5" x="0.25" y="0.25" width="17.5" height="17.5"></rect>
                        <polygon id="Rectangle-57" stroke="#A7B4C5" transform="translate(9.000000, 9.000000) rotate(-270.000000) translate(-9.000000, -9.000000) " points="6 1.5 12 1.5 12 16.5 6 16.5"></polygon>
                        <polygon id="Rectangle-57-Copy-2" stroke="#A7B4C5" points="6 1.5 12 1.5 12 16.5 6 16.5"></polygon>
                        <polygon id="Rectangle-57-Copy-2备份" stroke="#A7B4C5" points="6 1.5 12 1.5 12 16.5 6 16.5"></polygon>
                        <line x1="0.409090909" y1="0.409090909" x2="17.5909091" y2="17.5909091" id="Path-7" stroke="#A7B4C5"></line>
                        <line x1="0.409090909" y1="0.409090909" x2="17.5909091" y2="17.5909091" id="Path-7-Copy" stroke="#A7B4C5" transform="translate(9.000000, 9.000000) scale(-1, 1) translate(-9.000000, -9.000000) "></line>
                        <rect id="Rectangle-6-Copy-7" stroke="#A7B4C5" x="3" y="1.5" width="12" height="15" rx="1.63636364"></rect>
                        <rect id="Rectangle-6-Copy-8" stroke="#A7B4C5" x="1.5" y="3.05172414" width="15" height="11.8965517" rx="1.63636364"></rect>
                        <path d="M4.34772425,2.25 L13.6522757,2.25 C14.3817002,2.25 14.6462071,2.32594823 14.9128738,2.46856312 C15.1795404,2.61117802 15.388822,2.82045958 15.5314369,3.08712624 C15.6740518,3.35379291 15.75,3.61829983 15.75,4.34772425 L15.75,13.6522757 C15.75,14.3817002 15.6740518,14.6462071 15.5314369,14.9128738 C15.388822,15.1795404 15.1795404,15.388822 14.9128738,15.5314369 C14.6462071,15.6740518 14.3817002,15.75 13.6522757,15.75 L4.34772425,15.75 C3.61829983,15.75 3.35379291,15.6740518 3.08712624,15.5314369 C2.82045958,15.388822 2.61117802,15.1795404 2.46856312,14.9128738 C2.32594823,14.6462071 2.25,14.3817002 2.25,13.6522757 L2.25,4.34772425 C2.25,3.61829983 2.32594823,3.35379291 2.46856312,3.08712624 C2.61117802,2.82045958 2.82045958,2.61117802 3.08712624,2.46856312 C3.35379291,2.32594823 3.61829983,2.25 4.34772425,2.25 Z" id="Rectangle-6-Copy-3" stroke="#000000"></path>
                        <circle id="Oval-23" stroke="#000000" cx="9" cy="9" r="7.5"></circle>
                    </g>
                </g>
                <g id="编组" transform="translate(2.836779, 1.125215)" fill="#1F1F1F">
                    <polygon id="矩形备份" transform="translate(6.000000, 0.750000) rotate(-270.000000) translate(-6.000000, -0.750000) " points="5.46571815 -5.25 6.53428185 -5.25 6.53428185 6.75 5.46571815 6.75"></polygon>
                    <polygon id="矩形备份-2" transform="translate(6.000000, 14.424325) rotate(-270.000000) translate(-6.000000, -14.424325) " points="5.46571815 8.4243253 6.53428185 8.4243253 6.53428185 20.4243253 5.46571815 20.4243253"></polygon>
                    <path d="M2.3883228,12.5092595 L3.581222,9.70353096 L8.7295238,9.70353096 L9.922423,12.5092595 L11.3193707,12.5092595 L6.90878292,2.49280867 L5.41765892,2.49280867 L1.0070711,12.5092595 L2.3883228,12.5092595 Z M8.3214267,8.73555462 L3.98931909,8.73555462 L6.13967686,3.72732922 L6.20246102,3.72732922 L8.3214267,8.73555462 Z" id="A" fill-rule="nonzero"></path>
                </g>
            </g>
        </g>
    </g>
</svg>