<svg width="100" height="100" viewBox="0 0 100 100" xmlns="http://www.w3.org/2000/svg"><g fill="none" fill-rule="evenodd"><path d="M76.725 81.939l-.457.853 2.419 5.54H21.083l1.757-6.393h53.885zm11.537-57.252V77.1l-2.465-1.383-3.926 1.13v-49.96l.57.113 3.402-1.178 2.419-1.135zm-70.28-.223v51.809l-6.386-.556V24.464h6.387zM75.55 13.139l-2.621 4.03v.88H22.463l.377-1.505-.986-4.877H76.94l-1.39 1.472z" fill="#1F1F1F" fill-rule="nonzero"/><path d="M85.17 73a9.553 9.553 0 0 1 6.777 2.807 9.553 9.553 0 0 1 2.807 6.776 9.553 9.553 0 0 1-2.807 6.777 9.553 9.553 0 0 1-6.776 2.807 9.553 9.553 0 0 1-6.777-2.807 9.553 9.553 0 0 1-2.807-6.777 9.553 9.553 0 0 1 2.807-6.776A9.553 9.553 0 0 1 85.171 73zM85.17 7.833a9.553 9.553 0 0 1 6.777 2.807 9.553 9.553 0 0 1 2.807 6.777 9.553 9.553 0 0 1-2.807 6.776A9.553 9.553 0 0 1 85.171 27a9.553 9.553 0 0 1-6.777-2.807 9.553 9.553 0 0 1-2.807-6.776 9.553 9.553 0 0 1 2.807-6.777 9.553 9.553 0 0 1 6.777-2.807zM15.204 73a9.553 9.553 0 0 1 6.776 2.807 9.553 9.553 0 0 1 2.807 6.776 9.553 9.553 0 0 1-2.807 6.777 9.553 9.553 0 0 1-6.776 2.807 9.553 9.553 0 0 1-6.777-2.807 9.553 9.553 0 0 1-2.807-6.777 9.553 9.553 0 0 1 2.807-6.776A9.553 9.553 0 0 1 15.204 73zM15.204 7.833a9.553 9.553 0 0 1 6.776 2.807 9.553 9.553 0 0 1 2.807 6.777 9.553 9.553 0 0 1-2.807 6.776A9.553 9.553 0 0 1 15.204 27a9.553 9.553 0 0 1-6.777-2.807 9.553 9.553 0 0 1-2.807-6.776 9.553 9.553 0 0 1 2.807-6.777 9.553 9.553 0 0 1 6.777-2.807z" stroke="#1F1F1F" stroke-width="7.667"/></g></svg>