<svg width="100" height="100" viewBox="0 0 100 100" xmlns="http://www.w3.org/2000/svg"><g fill="none" fill-rule="evenodd"><path d="M28.463 73.607h43.39c-.332 1.337-.498 2.844-.498 4.522 0 1.45.116 2.715.326 3.816H28.693c.48-1.304.747-2.705.747-4.167 0-1.57-.36-2.953-.977-4.17zm12.198-43.759c1.627 1.826 3.968 3.323 7.023 4.493L26.078 70.544c-2.067-1.882-4.794-3.161-7.304-4.018l21.887-36.678zm19.452 1.172l21.03 34.836c-3.343.38-5.83 1.638-7.46 3.776L52.657 34.8c3.23-.679 5.716-1.939 7.457-3.78z" fill="#1F1F1F" fill-rule="nonzero"/><path d="M50.191 10.826c3.452 0 6.577 1.4 8.84 3.662a12.46 12.46 0 0 1 3.66 8.838c0 3.452-1.399 6.577-3.66 8.84a12.46 12.46 0 0 1-8.84 3.66 12.46 12.46 0 0 1-8.839-3.66 12.46 12.46 0 0 1-3.66-8.84c0-3.451 1.398-6.576 3.66-8.838a12.46 12.46 0 0 1 8.84-3.662zM17.386 64.167c3.452 0 6.577 1.399 8.84 3.66a12.46 12.46 0 0 1 3.66 8.84c0 3.451-1.399 6.576-3.66 8.838a12.46 12.46 0 0 1-8.84 3.662 12.46 12.46 0 0 1-8.838-3.662 12.46 12.46 0 0 1-3.662-8.838c0-3.452 1.4-6.577 3.662-8.84a12.46 12.46 0 0 1 8.838-3.66zM81.824 64.167c3.452 0 6.577 1.399 8.839 3.66a12.46 12.46 0 0 1 3.661 8.84c0 3.451-1.399 6.576-3.661 8.838a12.46 12.46 0 0 1-8.839 3.662 12.46 12.46 0 0 1-8.839-3.662 12.46 12.46 0 0 1-3.66-8.838c0-3.452 1.398-6.577 3.66-8.84a12.46 12.46 0 0 1 8.84-3.66z" stroke="#1F1F1F" stroke-width="8.333"/></g></svg>