
<svg viewBox="0 0 1024 1024" data-icon="fast-forward" width="1em" height="1em" fill="currentColor" aria-hidden="true">
    <g id="页面-1" stroke="none" stroke-width="1" fill="none" fill-rule="evenodd">
        <g id="编组-14">
            <rect id="矩形" stroke="#979797" stroke-width="1.5" fill="#D8D8D8" opacity="0" x="0.75" y="0.75" width="16.5" height="16.5"></rect>
            <path d="M0.548790165,6 C0.300262027,6 0.0987901648,5.79852814 0.0987901648,5.55 C0.0987901648,5.41996366 0.15504155,5.29628465 0.253052686,5.2108255 L3.75232154,2.15969713 C3.93964244,1.99636583 4.22390222,2.01581325 4.38723352,2.20313415 C4.45869084,2.28508691 4.49805902,2.39014075 4.49805902,2.49887163 L4.49779016,4.49986514 L17.2538524,4.5 L17.2538524,6 L0.548790165,6 Z" id="形状结合" fill="#1F1F1F" fill-rule="nonzero"></path>
            <path d="M0.548790165,15.9719466 C0.300262027,15.9719466 0.0987901648,15.7704748 0.0987901648,15.5219466 C0.0987901648,15.3905392 0.156229267,15.2656971 0.256023623,15.1802044 L3.84185377,12.108266 C4.03059279,11.9465755 4.31467204,11.9685026 4.47636254,12.1572417 C4.54622281,12.2387886 4.58462031,12.3426287 4.58462031,12.4500082 L4.58379016,14.471 L17.3229773,14.4719466 L17.3229773,15.9719466 L0.548790165,15.9719466 Z" id="形状结合备份-3" fill="#1F1F1F" fill-rule="nonzero" transform="translate(8.710884, 13.985973) scale(-1, -1) translate(-8.710884, -13.985973) "></path>
        </g>
    </g>
</svg>