
<svg viewBox="0 0 1024 1024" data-icon="fast-forward" width="1em" height="1em" fill="currentColor" aria-hidden="true">
    <g id="页面-1" stroke="none" stroke-width="1" fill="none" fill-rule="evenodd">
        <g id="编组-77">
            <g id="编组" opacity="0" stroke-width="0.5">
                <g id="线">
                    <rect id="Rectangle-6-Copy" stroke="#A7B4C5" x="0.25" y="0.25" width="17.5" height="17.5"></rect>
                    <polygon id="Rectangle-57" stroke="#A7B4C5" transform="translate(9.000000, 9.000000) rotate(-270.000000) translate(-9.000000, -9.000000) " points="6 1.5 12 1.5 12 16.5 6 16.5"></polygon>
                    <polygon id="Rectangle-57-Copy-2" stroke="#A7B4C5" points="6 1.5 12 1.5 12 16.5 6 16.5"></polygon>
                    <polygon id="Rectangle-57-Copy-2备份" stroke="#A7B4C5" points="6 1.5 12 1.5 12 16.5 6 16.5"></polygon>
                    <line x1="0.409090909" y1="0.409090909" x2="17.5909091" y2="17.5909091" id="Path-7" stroke="#A7B4C5"></line>
                    <line x1="0.409090909" y1="0.409090909" x2="17.5909091" y2="17.5909091" id="Path-7-Copy" stroke="#A7B4C5" transform="translate(9.000000, 9.000000) scale(-1, 1) translate(-9.000000, -9.000000) "></line>
                    <rect id="Rectangle-6-Copy-7" stroke="#A7B4C5" x="3" y="1.5" width="12" height="15" rx="1.81818182"></rect>
                    <rect id="Rectangle-6-Copy-8" stroke="#A7B4C5" x="1.5" y="3.05172414" width="15" height="11.8965517" rx="1.81818182"></rect>
                    <path d="M4.58080473,2.25 L13.4191953,2.25 C14.2296669,2.25 14.5235634,2.33438692 14.8198597,2.49284791 C15.116156,2.65130891 15.3486911,2.88384397 15.5071521,3.18014027 C15.6656131,3.47643657 15.75,3.77033315 15.75,4.58080473 L15.75,13.4191953 C15.75,14.2296669 15.6656131,14.5235634 15.5071521,14.8198597 C15.3486911,15.116156 15.116156,15.3486911 14.8198597,15.5071521 C14.5235634,15.6656131 14.2296669,15.75 13.4191953,15.75 L4.58080473,15.75 C3.77033315,15.75 3.47643657,15.6656131 3.18014027,15.5071521 C2.88384397,15.3486911 2.65130891,15.116156 2.49284791,14.8198597 C2.33438692,14.5235634 2.25,14.2296669 2.25,13.4191953 L2.25,4.58080473 C2.25,3.77033315 2.33438692,3.47643657 2.49284791,3.18014027 C2.65130891,2.88384397 2.88384397,2.65130891 3.18014027,2.49284791 C3.47643657,2.33438692 3.77033315,2.25 4.58080473,2.25 Z" id="Rectangle-6-Copy-3" stroke="#000000"></path>
                    <circle id="Oval-23" stroke="#000000" cx="9" cy="9" r="7.5"></circle>
                </g>
            </g>
            <path d="M12.495,13.165 L12.4355645,13.2772601 L12.75,14 L5.237,14 L5.46670203,13.165994 L12.495,13.165 Z M14,5.698 L14,12.535 L13.678492,12.3543273 L13.166,12.502 L13.166,5.985 L13.2405987,6 L13.6844422,5.84639606 L14,5.698 Z M4.833,5.669 L4.833,12.427 L4,12.3543273 L4,5.66926357 L4.833,5.669 Z M12.3419067,4.19199704 L12,4.7177017 L11.999,4.832 L5.417,4.832 L5.46670203,4.63621345 L5.33800835,4 L12.522,4 L12.3419067,4.19199704 Z" id="形状结合" fill="#1F1F1F" fill-rule="nonzero"></path>
            <g id="编组-19" transform="translate(1.748294, 3.000000)" stroke="#1F1F1F">
                <path d="M11.8484764,9 C12.1936544,9 12.5061544,9.13991102 12.7323599,9.36611652 C12.9585654,9.59232203 13.0984764,9.90482203 13.0984764,10.25 C13.0984764,10.595178 12.9585654,10.907678 12.7323599,11.1338835 C12.5061544,11.360089 12.1936544,11.5 11.8484764,11.5 C11.5032984,11.5 11.1907984,11.360089 10.9645929,11.1338835 C10.7383874,10.907678 10.5984764,10.595178 10.5984764,10.25 C10.5984764,9.90482203 10.7383874,9.59232203 10.9645929,9.36611652 C11.1907984,9.13991102 11.5032984,9 11.8484764,9 Z" id="椭圆形"></path>
                <path d="M11.8484764,0.5 C12.1936544,0.5 12.5061544,0.639911016 12.7323599,0.866116524 C12.9585654,1.09232203 13.0984764,1.40482203 13.0984764,1.75 C13.0984764,2.09517797 12.9585654,2.40767797 12.7323599,2.63388348 C12.5061544,2.86008898 12.1936544,3 11.8484764,3 C11.5032984,3 11.1907984,2.86008898 10.9645929,2.63388348 C10.7383874,2.40767797 10.5984764,2.09517797 10.5984764,1.75 C10.5984764,1.40482203 10.7383874,1.09232203 10.9645929,0.866116524 C11.1907984,0.639911016 11.5032984,0.5 11.8484764,0.5 Z" id="椭圆形备份-3"></path>
                <path d="M2.72233183,9 C3.0675098,9 3.3800098,9.13991102 3.60621531,9.36611652 C3.83242081,9.59232203 3.97233183,9.90482203 3.97233183,10.25 C3.97233183,10.595178 3.83242081,10.907678 3.60621531,11.1338835 C3.3800098,11.360089 3.0675098,11.5 2.72233183,11.5 C2.37715386,11.5 2.06465386,11.360089 1.83844835,11.1338835 C1.61224285,10.907678 1.47233183,10.595178 1.47233183,10.25 C1.47233183,9.90482203 1.61224285,9.59232203 1.83844835,9.36611652 C2.06465386,9.13991102 2.37715386,9 2.72233183,9 Z" id="椭圆形备份-2"></path>
                <path d="M2.72233183,0.5 C3.0675098,0.5 3.3800098,0.639911016 3.60621531,0.866116524 C3.83242081,1.09232203 3.97233183,1.40482203 3.97233183,1.75 C3.97233183,2.09517797 3.83242081,2.40767797 3.60621531,2.63388348 C3.3800098,2.86008898 3.0675098,3 2.72233183,3 C2.37715386,3 2.06465386,2.86008898 1.83844835,2.63388348 C1.61224285,2.40767797 1.47233183,2.09517797 1.47233183,1.75 C1.47233183,1.40482203 1.61224285,1.09232203 1.83844835,0.866116524 C2.06465386,0.639911016 2.37715386,0.5 2.72233183,0.5 Z" id="椭圆形备份-12"></path>
            </g>
        </g>
    </g>
</svg>