
<svg viewBox="0 0 1024 1024" data-icon="fast-forward" width="1em" height="1em" fill="currentColor" aria-hidden="true">
    <g id="页面-1" stroke="none" stroke-width="1" fill="none" fill-rule="evenodd">
        <g id="编组-68">
            <rect id="矩形" fill="#D8D8D8" opacity="0" x="0" y="0" width="18" height="18"></rect>
            <g id="编组" transform="translate(8.733469, 9.017686) rotate(-360.000000) translate(-8.733469, -9.017686) translate(5.733469, 2.517686)" stroke="#1F1F1F">
                <path d="M0.766530548,4.99514394 L0.766530548,2.51314194 C0.766530548,1.02934696 1.88581867,-3.0908609e-13 3.26653055,-3.0908609e-13 C4.64724242,-3.0908609e-13 5.76653055,1.02934696 5.76653055,2.51314194 L5.76653055,4.84733681 L5.76653055,4.99514394" id="形状"></path>
                <path d="M3.26653055,4.00250995 L3.26653055,8.63974618 C3.26653055,8.92963887 3.26653055,9.04578673 3.26653055,8.98818976 C3.26653055,8.93059279 3.26653055,7.26869952 3.26653055,4.00250995 Z" id="直线-4" stroke-linecap="square"></path>
                <path d="M0.766530548,13 L0.766530548,10.5863689 C0.766530548,9.15795679 1.88581867,8.08636889 3.26653055,8.08636889 C4.64724242,8.08636889 5.76653055,9.15795679 5.76653055,10.5863689 L5.76653055,13" id="形状备份" transform="translate(3.266531, 10.543184) scale(-1, -1) translate(-3.266531, -10.543184) "></path>
            </g>
        </g>
    </g>
</svg>