<svg viewBox="0 0 100 100" xmlns="http://www.w3.org/2000/svg"><g fill="#1F1F1F" fill-rule="evenodd"><path d="M67.5 20.833c6.443 0 11.667 5.224 11.667 11.667v35c0 6.443-5.224 11.667-11.667 11.667h-35c-6.443 0-11.667-5.224-11.667-11.667v-35c0-6.443 5.224-11.667 11.667-11.667h35zm0 6.806h-35a4.862 4.862 0 0 0-4.797 4.073l-.064.788v35a4.862 4.862 0 0 0 4.073 4.797l.788.064h35a4.862 4.862 0 0 0 4.797-4.073l.064-.788v-35a4.862 4.862 0 0 0-4.073-4.797l-.788-.064z" fill-rule="nonzero"/><path d="M27.084 4.167h45.833v7.639H27.084zM27.084 88.195h45.833v7.639H27.084zM4.167 27.084h7.639v45.833h-7.64zM88.195 27.084h7.639v45.833h-7.64z"/></g></svg>
