<svg viewBox="0 0 100 100" xmlns="http://www.w3.org/2000/svg"><g fill="none" fill-rule="evenodd"><path d="M0 0h100v100H0z"/><g fill="#1F1F1F"><path d="M77.043 12.757H22.957c-6.903 0-12.5 5.597-12.5 12.5v36.664c0 6.903 5.597 12.5 12.5 12.5h54.086c6.903 0 12.5-5.597 12.5-12.5V25.257c0-6.903-5.597-12.5-12.5-12.5zm-54.086 8.334h54.086a4.167 4.167 0 0 1 4.166 4.166v36.664a4.167 4.167 0 0 1-4.166 4.166H22.957a4.167 4.167 0 0 1-4.166-4.166V25.257a4.167 4.167 0 0 1 4.166-4.166z" fill-rule="nonzero"/><path d="M12.437 50h75.125v7.292H12.437zM30.564 81.313h38.871v8.333h-38.87z"/></g></g></svg>
