<svg viewBox="0 0 100 100" xmlns="http://www.w3.org/2000/svg"><g fill="none" fill-rule="evenodd"><path d="M0 0h99.995v100H0z"/><g transform="translate(20.833 4.167)" fill="#1F1F1F"><path d="M4.167 57.659h50v8.333h-50z"/><path d="M45.833 0H12.5C5.596 0 0 5.596 0 12.5v66.667c0 6.903 5.596 12.5 12.5 12.5h33.333c6.904 0 12.5-5.597 12.5-12.5V12.5c0-6.904-5.596-12.5-12.5-12.5zM12.5 8.333h33.333A4.167 4.167 0 0 1 50 12.5v66.667a4.167 4.167 0 0 1-4.167 4.166H12.5a4.167 4.167 0 0 1-4.167-4.166V12.5A4.167 4.167 0 0 1 12.5 8.333z" fill-rule="nonzero"/><circle cx="29.167" cy="74.357" r="5.102"/></g></g></svg>
