
<svg viewBox="0 0 1024 1024" data-icon="fast-forward" width="1em" height="1em" fill="currentColor" aria-hidden="true">
    <g id="页面-1" stroke="none" stroke-width="1" fill="none" fill-rule="evenodd">
        <g id="编组-3">
            <rect id="图标容器" fill="#D8D8D8" opacity="0" x="0" y="0" width="18" height="18"></rect>
            <g id="编组-2" transform="translate(3.337659, 7.750000)" fill="#1F1F1F">
                <path d="M10.0746825,2.5 C10.7650384,2.5 11.3246825,1.94035594 11.3246825,1.25 C11.3246825,0.559644063 10.7650384,0 10.0746825,0 C9.38432656,0 8.8246825,0.559644063 8.8246825,1.25 C8.8246825,1.94035594 9.38432656,2.5 10.0746825,2.5 Z" id="椭圆形备份-5"></path>
                <path d="M5.66234125,2.5 C6.35269719,2.5 6.91234125,1.94035594 6.91234125,1.25 C6.91234125,0.559644063 6.35269719,0 5.66234125,0 C4.97198531,0 4.41234125,0.559644063 4.41234125,1.25 C4.41234125,1.94035594 4.97198531,2.5 5.66234125,2.5 Z" id="椭圆形备份-6"></path>
                <path d="M1.25,2.5 C1.94035594,2.5 2.5,1.94035594 2.5,1.25 C2.5,0.559644063 1.94035594,0 1.25,0 C0.559644063,0 0,0.559644063 0,1.25 C0,1.94035594 0.559644063,2.5 1.25,2.5 Z" id="椭圆形备份-7"></path>
            </g>
        </g>
    </g>
</svg>