<svg width="100" height="100" viewBox="0 0 100 100" xmlns="http://www.w3.org/2000/svg"><g fill="#1F1F1F" fill-rule="evenodd"><path d="M85.845 60.155C91.454 60.155 96 55.608 96 50s-4.546-10.155-10.155-10.155c-5.608 0-10.155 4.547-10.155 10.155s4.547 10.155 10.155 10.155zM50 60.155c5.608 0 10.155-4.547 10.155-10.155S55.608 39.845 50 39.845 39.845 44.392 39.845 50 44.392 60.155 50 60.155zM14.155 60.155c5.608 0 10.155-4.547 10.155-10.155s-4.547-10.155-10.155-10.155C8.546 39.845 4 44.392 4 50s4.546 10.155 10.155 10.155z"/></g></svg>