
<svg viewBox="0 0 1024 1024" data-icon="fast-forward" width="1em" height="1em" fill="currentColor" aria-hidden="true">
    <g id="页面-1" stroke="none" stroke-width="1" fill="none" fill-rule="evenodd">
        <g id="编组-10">
            <polygon id="矩形" fill="#FFFFFF" opacity="0" points="-1.27897692e-13 0 18 0 18 18 -1.27897692e-13 18"></polygon>
            <path d="M6.91131145,4.33752757 C7.70579157,3.93849243 8.34195208,3.94608055 8.98075232,4.0935592 C10.3457988,4.40870501 11.4560152,5.2393806 12.1469242,6.32845311 C12.8359616,7.41457523 13.107731,8.75784795 12.7976284,10.10105 C12.5187222,11.3091254 11.8167688,12.3110107 10.8813165,12.9907625 C9.73382928,13.8245907 8.23550156,14.1740955 6.73353228,13.8273386 C6.08933285,13.6786134 5.50186827,13.4151631 4.98857334,13.0637503 C5.71073415,12.3117307 6.39650361,11.939607 6.93421845,11.4516835 C7.64236721,10.8091079 8.13120454,9.99606065 8.34932286,9.05128641 C8.55450796,8.16253211 8.49227956,7.27366616 8.21497371,6.46700072 C7.92896662,5.63502393 7.41372583,4.89055358 6.72644712,4.32461429 L6.805,4.393 Z" id="路径" stroke="#1F1F1F"></path>
        </g>
    </g>
</svg>