<svg width="100" height="100" xmlns="http://www.w3.org/2000/svg"><path d="M30.522 10.577c6.668-2.012 13.367-2.166 20.076-.617 11.168 2.579 20.252 9.375 25.905 18.286 5.637 8.886 7.86 19.877 5.324 30.866-2.282 9.885-8.026 18.082-15.68 23.644C56.76 89.578 44.5 92.437 32.212 89.6c-6.716-1.55-12.679-4.625-17.594-8.77l-.627-.55.568-.402a39.307 39.307 0 0 0 19.86-10.096 38.314 38.314 0 0 0 11.013-19.258 38.307 38.307 0 0 0-1.099-21.145A39.299 39.299 0 0 0 32.11 11.815Z" stroke="#1F1F1F" stroke-width="8.182" fill="none" fill-rule="evenodd"/></svg>