<?xml version="1.0" encoding="UTF-8"?>
<svg width="100px" height="100px" viewBox="0 0 100 100" version="1.1" xmlns="http://www.w3.org/2000/svg" xmlns:xlink="http://www.w3.org/1999/xlink">
    <title>横向排列</title>
    <g id="横向排列" stroke="none" stroke-width="1" fill="none" fill-rule="evenodd">
        <g id="编组">
            <g id="线上模板" opacity="0" stroke-width="2.77777778">
                <g id="线">
                    <rect id="Rectangle-6-Copy" stroke="#A7B4C5" x="1.38888889" y="1.38888889" width="97.2222222" height="97.2222222"></rect>
                    <polygon id="Rectangle-57" stroke="#A7B4C5" transform="translate(50.000000, 50.000000) rotate(-270.000000) translate(-50.000000, -50.000000) " points="33.3333333 8.33333333 66.6666667 8.33333333 66.6666667 91.6666667 33.3333333 91.6666667"></polygon>
                    <polygon id="Rectangle-57-Copy-2" stroke="#A7B4C5" points="33.3333333 8.33333333 66.6666667 8.33333333 66.6666667 91.6666667 33.3333333 91.6666667"></polygon>
                    <polygon id="Rectangle-57-Copy-2备份" stroke="#A7B4C5" points="33.3333333 8.33333333 66.6666667 8.33333333 66.6666667 91.6666667 33.3333333 91.6666667"></polygon>
                    <line x1="2.27272727" y1="2.27272727" x2="97.7272727" y2="97.7272727" id="Path-7" stroke="#A7B4C5"></line>
                    <line x1="2.27272727" y1="2.27272727" x2="97.7272727" y2="97.7272727" id="Path-7-Copy" stroke="#A7B4C5" transform="translate(50.000000, 50.000000) scale(-1, 1) translate(-50.000000, -50.000000) "></line>
                    <rect id="Rectangle-6-Copy-7" stroke="#A7B4C5" x="16.6666667" y="8.33333333" width="66.6666667" height="83.3333333" rx="15.1515152"></rect>
                    <rect id="Rectangle-6-Copy-8" stroke="#A7B4C5" x="8.33333333" y="16.954023" width="83.3333333" height="66.091954" rx="15.1515152"></rect>
                    <path d="M31.9233727,12.5 L68.0766273,12.5 C74.8305571,12.5 77.2796953,13.2032243 79.7488311,14.5237326 C82.2179669,15.8442409 84.1557591,17.7820331 85.4762674,20.2511689 C86.7967757,22.7203047 87.5,25.1694429 87.5,31.9233727 L87.5,68.0766273 C87.5,74.8305571 86.7967757,77.2796953 85.4762674,79.7488311 C84.1557591,82.2179669 82.2179669,84.1557591 79.7488311,85.4762674 C77.2796953,86.7967757 74.8305571,87.5 68.0766273,87.5 L31.9233727,87.5 C25.1694429,87.5 22.7203047,86.7967757 20.2511689,85.4762674 C17.7820331,84.1557591 15.8442409,82.2179669 14.5237326,79.7488311 C13.2032243,77.2796953 12.5,74.8305571 12.5,68.0766273 L12.5,31.9233727 C12.5,25.1694429 13.2032243,22.7203047 14.5237326,20.2511689 C15.8442409,17.7820331 17.7820331,15.8442409 20.2511689,14.5237326 C22.7203047,13.2032243 25.1694429,12.5 31.9233727,12.5 Z" id="Rectangle-6-Copy-3" stroke="#000000"></path>
                    <circle id="Oval-23" stroke="#000000" cx="50" cy="50" r="41.6666667"></circle>
                </g>
            </g>
            <g id="编组-2" transform="translate(50.000000, 50.000000) rotate(-90.000000) translate(-50.000000, -50.000000) translate(5.067546, 10.666977)" fill="#1F1F1F" fill-rule="nonzero">
                <path d="M29.2654776,46.0664883 C29.7257149,46.0664883 30.0988109,46.4395843 30.0988109,46.8998216 L30.0988109,46.8998216 L30.0984311,61.0665689 L84.2654776,61.0672356 L84.2654776,69.4005689 L30.0984311,69.4005689 L30.0988109,83.4321136 C30.0988109,83.5834945 30.0575945,83.7312697 29.9805851,83.8599781 L29.9162016,83.9526928 C29.6286936,84.3120777 29.1042833,84.3703455 28.7448984,84.0828376 L28.7448984,84.0828376 L5.91221591,65.8166916 C5.86416199,65.7782485 5.82051425,65.7346007 5.78207111,65.6865468 C5.49456315,65.3271618 5.55283097,64.8027515 5.91221591,64.5152436 L5.91221591,64.5152436 L28.7448984,46.2490976 C28.8926592,46.1308889 29.0762513,46.0664883 29.2654776,46.0664883 Z M84.2654776,-5.5994311 L84.2654776,36.0672356 L75.9321442,36.0672356 L75.9321442,-5.5994311 L84.2654776,-5.5994311 Z M50.9321442,-5.5994311 L50.9321442,36.0672356 L42.5988109,36.0672356 L42.5988109,-5.5994311 L50.9321442,-5.5994311 Z M17.5988109,-5.5994311 L17.5988109,36.0672356 L9.26547757,36.0672356 L9.26547757,-5.5994311 L17.5988109,-5.5994311 Z" id="形状结合" transform="translate(44.932454, 39.333023) rotate(-90.000000) translate(-44.932454, -39.333023) "></path>
            </g>
        </g>
    </g>
</svg>