<svg viewBox="0 0 100 100" xmlns="http://www.w3.org/2000/svg"><g fill="#1F1F1F" fill-rule="evenodd"><path d="M75 8.333c9.205 0 16.667 7.462 16.667 16.667v50c0 9.205-7.462 16.667-16.667 16.667H25c-9.205 0-16.667-7.462-16.667-16.667V25c0-9.205 7.462-16.667 16.667-16.667h50zm0 8.334H25a8.335 8.335 0 0 0-8.277 7.361l-.056.972v50a8.335 8.335 0 0 0 7.361 8.277l.972.056h50a8.335 8.335 0 0 0 8.277-7.361l.056-.972V25a8.335 8.335 0 0 0-7.361-8.277L75 16.667z" fill-rule="nonzero"/><path d="M41.667 25H75v8.333H41.667zM25 66.667h33.333V75H25zM25 25h8.333v33.333H25zM66.667 41.667H75V75h-8.333z"/></g></svg>
