
<svg viewBox="0 0 50 50" data-icon="fast-forward" width="1em" height="1em" fill="currentColor" aria-hidden="true">
    <g id="页面-1" stroke="none" stroke-width="1" fill="none" fill-rule="evenodd">
        <g id="编组-46" transform="translate(-0.000000, 0.000000)">
            <g id="编组-83" transform="translate(0.000000, -0.000000)">
                <g id="编组-6" transform="translate(9.412426, 9.000000) rotate(-360.000000) translate(-9.412426, -9.000000) translate(0.912426, 0.000000)">
                    <g id="编组-54" transform="translate(8.077306, 8.863872) rotate(-144.000000) translate(-8.077306, -8.863872) translate(4.077306, 0.863872)">
                        <path d="M3.70412405,0.824967232 C4.20130746,0.824967232 4.65142256,1.02649063 4.9772418,1.35230987 C5.30306105,1.67812912 5.50458444,2.12824422 5.50458444,2.62542762 L5.50458444,2.62542762 L5.50458444,11.564007 L1.90366366,11.564007 L1.90366366,2.62542762 C1.90366366,2.12824422 2.10518705,1.67812912 2.4310063,1.35230987 C2.75682554,1.02649063 3.20694064,0.824967232 3.70412405,0.824967232 Z" id="矩形111" stroke="#1F1F1F"></path>
                        <path d="M0.736102514,11.1238999 L6.67179309,11.1238999 C6.94793546,11.1238999 7.17179309,11.3477575 7.17179309,11.6238999 L7.17179309,12.1238999 C7.17179309,12.4000422 6.94793546,12.6238999 6.67179309,12.6238999 L0.736102514,12.6238999 C0.45996014,12.6238999 0.236102514,12.4000422 0.236102514,12.1238999 L0.236102514,11.6238999 C0.236102514,11.3477575 0.45996014,11.1238999 0.736102514,11.1238999 Z" id="矩形" fill="#1F1F1F"></path>
                        <path d="M2.79226394,12.8238999 L5.50723501,12.8238999 L5.50723501,12.8238999 L5.50723501,14.6238999 L2.79226394,14.6238999 C2.29520767,14.6238999 1.89226394,14.2209561 1.89226394,13.7238999 C1.89226394,13.2268436 2.29520767,12.8238999 2.79226394,12.8238999 Z" id="矩形备份-30" fill="#1F1F1F" transform="translate(3.699749, 13.723900) rotate(-90.000000) translate(-3.699749, -13.723900) "></path>
                    </g>
                </g>
            </g>
        </g>
    </g>
</svg>