<svg width="100" height="100" viewBox="0 0 100 100" xmlns="http://www.w3.org/2000/svg"><g fill="none" fill-rule="evenodd"><path d="M50.472 6.593c12.273 0 23.385 4.974 31.427 13.017 8.043 8.043 13.018 19.154 13.018 31.427s-4.975 23.384-13.018 31.427c-8.042 8.043-19.154 13.018-31.427 13.018s-23.384-4.975-31.427-13.018C11.003 74.421 6.028 63.31 6.028 51.037s4.975-23.384 13.017-31.427C27.088 11.567 38.2 6.593 50.472 6.593z" stroke="#1F1F1F" stroke-width="8.333"/><path d="M64.272 54.36l-14.41 11.613a5.556 5.556 0 0 1-9.042-4.325V40.32a5.556 5.556 0 0 1 9.011-4.35L64.248 47.42a4.444 4.444 0 0 1 .024 6.94z" fill="#1F1F1F"/></g></svg>