
<svg viewBox="0 0 1024 1024" data-icon="fast-forward" width="1em" height="1em" fill="currentColor" aria-hidden="true">
    <g id="页面-1" stroke="none" stroke-width="1" fill="none" fill-rule="evenodd">
        <g id="编组-39">
            <g id="编组" opacity="0" stroke-width="0.5">
                <g id="线">
                    <rect id="Rectangle-6-Copy" stroke="#A7B4C5" x="0.25" y="0.25" width="17.5" height="17.5"></rect>
                    <polygon id="Rectangle-57" stroke="#A7B4C5" transform="translate(9.000000, 9.000000) rotate(-270.000000) translate(-9.000000, -9.000000) " points="6 1.5 12 1.5 12 16.5 6 16.5"></polygon>
                    <polygon id="Rectangle-57-Copy-2" stroke="#A7B4C5" points="6 1.5 12 1.5 12 16.5 6 16.5"></polygon>
                    <polygon id="Rectangle-57-Copy-2备份" stroke="#A7B4C5" points="6 1.5 12 1.5 12 16.5 6 16.5"></polygon>
                    <line x1="0.409090909" y1="0.409090909" x2="17.5909091" y2="17.5909091" id="Path-7" stroke="#A7B4C5"></line>
                    <line x1="0.409090909" y1="0.409090909" x2="17.5909091" y2="17.5909091" id="Path-7-Copy" stroke="#A7B4C5" transform="translate(9.000000, 9.000000) scale(-1, 1) translate(-9.000000, -9.000000) "></line>
                    <rect id="Rectangle-6-Copy-7" stroke="#A7B4C5" x="3" y="1.5" width="12" height="15" rx="1.81818182"></rect>
                    <rect id="Rectangle-6-Copy-8" stroke="#A7B4C5" x="1.5" y="3.05172414" width="15" height="11.8965517" rx="1.81818182"></rect>
                    <path d="M4.58080473,2.25 L13.4191953,2.25 C14.2296669,2.25 14.5235634,2.33438692 14.8198597,2.49284791 C15.116156,2.65130891 15.3486911,2.88384397 15.5071521,3.18014027 C15.6656131,3.47643657 15.75,3.77033315 15.75,4.58080473 L15.75,13.4191953 C15.75,14.2296669 15.6656131,14.5235634 15.5071521,14.8198597 C15.3486911,15.116156 15.116156,15.3486911 14.8198597,15.5071521 C14.5235634,15.6656131 14.2296669,15.75 13.4191953,15.75 L4.58080473,15.75 C3.77033315,15.75 3.47643657,15.6656131 3.18014027,15.5071521 C2.88384397,15.3486911 2.65130891,15.116156 2.49284791,14.8198597 C2.33438692,14.5235634 2.25,14.2296669 2.25,13.4191953 L2.25,4.58080473 C2.25,3.77033315 2.33438692,3.47643657 2.49284791,3.18014027 C2.65130891,2.88384397 2.88384397,2.65130891 3.18014027,2.49284791 C3.47643657,2.33438692 3.77033315,2.25 4.58080473,2.25 Z" id="Rectangle-6-Copy-3" stroke="#000000"></path>
                    <circle id="Oval-23" stroke="#000000" cx="9" cy="9" r="7.5"></circle>
                </g>
            </g>
            <g id="编组-2" transform="translate(0.980769, 1.010048)">
                <path d="M8.1042709,0.176649098 C10.3134099,0.176649098 12.3134099,1.0720796 13.7611251,2.51979485 C15.2088404,3.9675101 16.1042709,5.9675101 16.1042709,8.1766491 C16.1042709,10.3857881 15.2088404,12.3857881 13.7611251,13.8335033 C12.3134099,15.2812186 10.3134099,16.1766491 8.1042709,16.1766491 C5.8951319,16.1766491 3.8951319,15.2812186 2.44741665,13.8335033 C0.9997014,12.3857881 0.1042709,10.3857881 0.1042709,8.1766491 C0.1042709,5.9675101 0.9997014,3.9675101 2.44741665,2.51979485 C3.8951319,1.0720796 5.8951319,0.176649098 8.1042709,0.176649098 Z" id="椭圆形" stroke="#1F1F1F" stroke-width="1.5"></path>
                <path d="M9.46512149,6.45530511 L11.5554086,9.04917785 C11.9019514,9.47920869 11.834271,10.108746 11.4042401,10.4552888 C11.2264822,10.5985361 11.0050617,10.6766491 10.7767689,10.6766491 L6.93803488,10.6766491 C6.38575013,10.6766491 5.93803488,10.2289338 5.93803488,9.6766491 C5.93803488,9.45080562 6.01448328,9.23161233 6.1549342,9.05475415 L8.21572917,6.45976615 C8.49049965,6.1137705 8.99373002,6.05603109 9.33972567,6.33080157 C9.38599356,6.36754495 9.42804865,6.40930079 9.46512149,6.45530511 Z" id="三角形" fill="#1F1F1F" transform="translate(8.866916, 8.176649) rotate(-270.000000) translate(-8.866916, -8.176649) "></path>
            </g>
        </g>
    </g>
</svg>