
<svg viewBox="0 0 1024 1024" data-icon="fast-forward" width="1em" height="1em" fill="currentColor" aria-hidden="true">
    <g id="页面-1" stroke="none" stroke-width="1" fill="none" fill-rule="evenodd">
        <g id="编组-64" transform="translate(-0.000000, -0.000000)">
            <rect id="图标容器" fill="#D8D8D8" opacity="0" transform="translate(9.000000, 9.000000) rotate(-270.000000) translate(-9.000000, -9.000000) " x="0" y="0" width="18" height="18"></rect>
            <g id="编组-63" transform="translate(1.500000, 1.500000)">
                <g id="编组" opacity="0" stroke-width="0.5">
                    <g id="线">
                        <rect id="Rectangle-6-Copy" stroke="#A7B4C5" x="0.25" y="0.25" width="14.7307692" height="14.7307692"></rect>
                        <polygon id="Rectangle-57" stroke="#A7B4C5" transform="translate(7.615385, 7.615385) rotate(-270.000000) translate(-7.615385, -7.615385) " points="5.07692308 1.26923077 10.1538462 1.26923077 10.1538462 13.9615385 5.07692308 13.9615385"></polygon>
                        <polygon id="Rectangle-57-Copy-2" stroke="#A7B4C5" points="5.07692308 1.26923077 10.1538462 1.26923077 10.1538462 13.9615385 5.07692308 13.9615385"></polygon>
                        <polygon id="Rectangle-57-Copy-2备份" stroke="#A7B4C5" points="5.07692308 1.26923077 10.1538462 1.26923077 10.1538462 13.9615385 5.07692308 13.9615385"></polygon>
                        <line x1="0.346153846" y1="0.346153846" x2="14.8846154" y2="14.8846154" id="Path-7" stroke="#A7B4C5"></line>
                        <line x1="0.346153846" y1="0.346153846" x2="14.8846154" y2="14.8846154" id="Path-7-Copy" stroke="#A7B4C5" transform="translate(7.615385, 7.615385) scale(-1, 1) translate(-7.615385, -7.615385) "></line>
                        <rect id="Rectangle-6-Copy-7" stroke="#A7B4C5" x="2.53846154" y="1.26923077" width="10.1538462" height="12.6923077" rx="1.38461538"></rect>
                        <rect id="Rectangle-6-Copy-8" stroke="#A7B4C5" x="1.26923077" y="2.58222812" width="12.6923077" height="10.066313" rx="1.38461538"></rect>
                        <path d="M3.6788436,1.90384615 L11.5519256,1.90384615 C12.1691309,1.90384615 12.3929445,1.96811004 12.6185855,2.08878418 C12.8442265,2.20945832 13.0213109,2.38654272 13.1419851,2.61218374 C13.2626592,2.83782477 13.3269231,3.06163832 13.3269231,3.6788436 L13.3269231,11.5519256 C13.3269231,12.1691309 13.2626592,12.3929445 13.1419851,12.6185855 C13.0213109,12.8442265 12.8442265,13.0213109 12.6185855,13.1419851 C12.3929445,13.2626592 12.1691309,13.3269231 11.5519256,13.3269231 L3.6788436,13.3269231 C3.06163832,13.3269231 2.83782477,13.2626592 2.61218374,13.1419851 C2.38654272,13.0213109 2.20945832,12.8442265 2.08878418,12.6185855 C1.96811004,12.3929445 1.90384615,12.1691309 1.90384615,11.5519256 L1.90384615,3.6788436 C1.90384615,3.06163832 1.96811004,2.83782477 2.08878418,2.61218374 C2.20945832,2.38654272 2.38654272,2.20945832 2.61218374,2.08878418 C2.83782477,1.96811004 3.06163832,1.90384615 3.6788436,1.90384615 Z" id="Rectangle-6-Copy-3" stroke="#000000"></path>
                        <circle id="Oval-23" stroke="#000000" cx="7.61538462" cy="7.61538462" r="6.34615385"></circle>
                    </g>
                </g>
                <path d="M5.66505858,13.8706573 C3.03634139,12.9478396 1.15158762,10.4440237 1.15158762,7.5 C1.15158762,3.77207794 4.17366556,0.75 7.90158762,0.75 C11.6295097,0.75 14.6515876,3.77207794 14.6515876,7.5 C14.6515876,9.51361603 13.524453,11.6944954 12.3714763,12.5580295 C11.6028251,13.1337189 11.0478498,13.4748104 10.7065504,13.5813041" id="路径" stroke="#1F1F1F" stroke-width="1.5"></path>
                <path d="M11.1709768,12.1798044 L13.2588831,14.7896872 C13.3106345,14.8543765 13.3001463,14.9487703 13.235457,15.0005218 C13.20886,15.0217993 13.1758135,15.0333915 13.1417527,15.0333915 L8.96594019,15.0333915 C8.88309748,15.0333915 8.81594019,14.9662342 8.81594019,14.8833915 C8.81594019,14.8493307 8.8275323,14.8162842 8.84880987,14.7896872 L10.9367161,12.1798044 C10.9884676,12.1151151 11.0828614,12.1046269 11.1475507,12.1563783 C11.1562004,12.1632981 11.164057,12.1711546 11.1709768,12.1798044 Z" id="三角形" fill="#1F1F1F" transform="translate(11.053846, 13.533391) rotate(-129.000000) translate(-11.053846, -13.533391) "></path>
            </g>
        </g>
    </g>
</svg>