<svg width="100" height="100" xmlns="http://www.w3.org/2000/svg"><g fill="#1F1F1F" fill-rule="evenodd"><path d="M51.229 4.604c25.345 0 45.892 20.547 45.892 45.893 0 13.074-7.068 28.09-15.79 34.623l-.971.721-.937.683-.456.327-.888.626-.432.299-.84.57c-2.746 1.834-4.97 3.045-6.78 3.656l-.268.087-2.734-8.762a5.43 5.43 0 0 0 .447-.164l.345-.15.186-.089.4-.2c.138-.073.284-.151.435-.235l.47-.267.249-.145.522-.316.274-.17.573-.366.606-.397.639-.43.67-.46.701-.494.733-.525.377-.275.777-.572.4-.298c6.34-4.748 12.114-17.017 12.114-27.277 0-20.277-16.438-36.714-36.714-36.714-20.277 0-36.714 16.437-36.714 36.714 0 15.55 9.756 29.243 24.094 34.489l.454.163-3.04 8.66C17.787 87.407 5.336 70.137 5.336 50.497c0-25.346 20.547-45.893 45.893-45.893Z" fill-rule="nonzero"/><path d="M63.63 92.07 68 72.092a.918.918 0 0 1 1.61-.382l16.08 19.858a.918.918 0 0 1-.707 1.495l-20.451.121a.918.918 0 0 1-.902-1.114Z"/></g></svg>