<svg width="100" height="100" viewBox="0 0 100 100" xmlns="http://www.w3.org/2000/svg"><g fill="#1F1F1F" fill-rule="nonzero"><path d="M52.405 10.969a7.035 7.035 0 0 1 2.955 2.744l38.728 66.785c1.904 3.284.58 7.379-2.955 9.147a7.72 7.72 0 0 1-3.448.807H45.322l-.002-79.386a7.757 7.757 0 0 1 7.085-.097zm.188 12.214v60.515l35.092.001-35.092-60.516z"/><path d="M45.322 90.452H10.23c-4.016 0-7.272-3.023-7.272-6.753 0-1.117.299-2.217.87-3.2l38.727-66.786a6.981 6.981 0 0 1 2.767-2.648v12.118L10.23 83.7h35.091v6.753z" fill-opacity=".303"/></g></svg>