
<svg viewBox="0 0 1024 1024" data-icon="fast-forward" width="1em" height="1em" fill="currentColor" aria-hidden="true">
    <g id="页面-1" stroke="none" stroke-width="1" fill="none" fill-rule="evenodd">
        <g id="编组-15">
            <rect id="矩形" stroke="#979797" stroke-width="1.5" fill="#D8D8D8" opacity="0" x="0.75" y="0.75" width="16.5" height="16.5"></rect>
            <g id="编组-9" transform="translate(2.996404, 0.785462)">
                <path d="M0,14.996942 L0,5.7 C0,4.20883118 1.20883118,3 2.7,3 L11.3938528,3" id="路径" stroke="#1F1F1F" stroke-width="1.5"></path>
                <path d="M12.073256,1.47863641 L14.4321386,4.3051267 C14.5383001,4.43233284 14.52124,4.62151467 14.3940339,4.72767614 C14.3400946,4.77269184 14.2720672,4.79734904 14.2018115,4.79734904 L9.4840463,4.79734904 C9.31836087,4.79734904 9.1840463,4.66303447 9.1840463,4.49734904 C9.1840463,4.42709336 9.2087035,4.35906599 9.2537192,4.3051267 L11.6126018,1.47863641 C11.7187633,1.35143027 11.9079451,1.33437019 12.0351513,1.44053166 C12.0489702,1.45206444 12.0617232,1.46481746 12.073256,1.47863641 Z" id="三角形备份" fill="#1F1F1F" transform="translate(11.842929, 3.000000) scale(1, -1) rotate(-270.000000) translate(-11.842929, -3.000000) "></path>
            </g>
        </g>
    </g>
</svg>