<svg width="100" height="100" viewBox="0 0 100 100" xmlns="http://www.w3.org/2000/svg"><path d="M5 24.688V5h19.688L5 24.688zm0 50.624V95h19.688L5 75.312zM75.313 95H95V75.312L75.312 95zM95 24.687V5H75.312L95 24.688zm-75.938 26.72c0 17.862 14.481 32.343 32.344 32.343S83.75 69.27 83.75 51.406c0-17.863-14.48-32.343-32.344-32.343-17.863 0-32.343 14.48-32.343 32.343zm70.313 0c0 20.969-17 37.968-37.969 37.968-20.97 0-37.968-17-37.968-37.969a37.969 37.969 0 0 1 37.968-37.968c20.97 0 37.969 16.999 37.969 37.968z" fill="#000" fill-rule="nonzero"/></svg>