<svg viewBox="0 0 100 100" xmlns="http://www.w3.org/2000/svg"><g fill="none" fill-rule="evenodd"><path d="M0 0h100v100H0z"/><path d="M32 49.932c.46 0 .833.373.833.833v14.167h51.666v8.334H32.832v14.032c0 .151-.04.299-.118.428l-.064.092a.833.833 0 0 1-1.171.13L8.646 69.682a.833.833 0 0 1 0-1.301L31.48 50.115a.833.833 0 0 1 .52-.183zM66.348 8.646a.833.833 0 0 1 1.171-.13l22.833 18.266a.833.833 0 0 1 0 1.302L67.52 46.35a.833.833 0 0 1-1.354-.651v-14.1H9.498v-8.333h56.666l.001-14.1c0-.15.041-.298.118-.427z" fill="#1F1F1F" fill-rule="nonzero"/></g></svg>
