<svg viewBox="0 0 100 100" xmlns="http://www.w3.org/2000/svg"><g fill="none" fill-rule="evenodd"><path d="M0 0h100v100H0z"/><path d="M49.932 67c0-.46.373-.834.833-.834h14.167V14.5h8.334v51.667h14.032c.151 0 .299.041.428.118l.092.065c.36.287.418.812.13 1.171L69.682 90.353a.833.833 0 0 1-1.301 0L50.115 67.52a.833.833 0 0 1-.183-.52zM8.646 32.65a.833.833 0 0 1-.13-1.171L26.782 8.646a.833.833 0 0 1 1.302 0L46.35 31.48a.833.833 0 0 1-.651 1.354h-14.1V89.5h-8.333V32.833h-14.1a.833.833 0 0 1-.427-.119z" fill="#1F1F1F" fill-rule="nonzero"/></g></svg>
