<svg width="100" height="100" xmlns="http://www.w3.org/2000/svg" xmlns:xlink="http://www.w3.org/1999/xlink"><defs><path id="a" d="M0 0h100v100H0z"/></defs><g fill="none" fill-rule="evenodd"><mask id="b" fill="#fff"><use xlink:href="#a"/></mask><g mask="url(#b)"><path d="M20.27 18.477c7.322-7.322 16.92-10.983 26.516-10.983 9.597 0 19.195 3.66 26.517 10.983 7.322 7.322 10.983 16.92 10.983 26.517 0 9.597-3.66 19.194-10.983 26.516-7.322 7.322-16.92 10.984-26.517 10.984-9.597 0-19.194-3.662-26.516-10.984-7.322-7.322-10.984-16.92-10.984-26.516 0-9.598 3.662-19.195 10.984-26.517Z" stroke="#1F1F1F" stroke-width="8.333"/><path fill="#1F1F1F" d="m71.689 75.789 5.892-5.893L95.26 87.574l-5.892 5.892z"/></g></g></svg>