
<svg viewBox="0 0 1024 1024" data-icon="fast-forward" width="1em" height="1em" fill="currentColor" aria-hidden="true">
    <g id="页面-1" stroke="none" stroke-width="1" fill="none" fill-rule="evenodd">
        <g id="编组-8">
            <rect id="矩形" fill="#D8D8D8" opacity="0" x="0" y="0" width="18" height="18"></rect>
            <g id="编组-33" transform="translate(0.692308, 0.692308)">
                <g id="编组" opacity="0" stroke-width="0.5">
                    <g id="线">
                        <rect id="Rectangle-6-Copy" stroke="#A7B4C5" x="0.25" y="0.25" width="16.1153846" height="16.1153846"></rect>
                        <polygon id="Rectangle-57" stroke="#A7B4C5" transform="translate(8.307692, 8.307692) rotate(-270.000000) translate(-8.307692, -8.307692) " points="5.53846154 1.38461538 11.0769231 1.38461538 11.0769231 15.2307692 5.53846154 15.2307692"></polygon>
                        <polygon id="Rectangle-57-Copy-2" stroke="#A7B4C5" points="5.53846154 1.38461538 11.0769231 1.38461538 11.0769231 15.2307692 5.53846154 15.2307692"></polygon>
                        <polygon id="Rectangle-57-Copy-2备份" stroke="#A7B4C5" points="5.53846154 1.38461538 11.0769231 1.38461538 11.0769231 15.2307692 5.53846154 15.2307692"></polygon>
                        <line x1="0.377622378" y1="0.377622378" x2="16.2377622" y2="16.2377622" id="Path-7" stroke="#A7B4C5"></line>
                        <line x1="0.377622378" y1="0.377622378" x2="16.2377622" y2="16.2377622" id="Path-7-Copy" stroke="#A7B4C5" transform="translate(8.307692, 8.307692) scale(-1, 1) translate(-8.307692, -8.307692) "></line>
                        <rect id="Rectangle-6-Copy-7" stroke="#A7B4C5" x="2.76923077" y="1.38461538" width="11.0769231" height="13.8461538" rx="1.63636364"></rect>
                        <rect id="Rectangle-6-Copy-8" stroke="#A7B4C5" x="1.38461538" y="2.81697613" width="13.8461538" height="10.9814324" rx="1.63636364"></rect>
                        <path d="M4.17464733,2.07692308 L12.4407373,2.07692308 C13.1701617,2.07692308 13.4346686,2.1528713 13.7013353,2.2954862 C13.968002,2.43810109 14.1772835,2.64738265 14.3198984,2.91404932 C14.4625133,3.18071599 14.5384615,3.44522291 14.5384615,4.17464733 L14.5384615,12.4407373 C14.5384615,13.1701617 14.4625133,13.4346686 14.3198984,13.7013353 C14.1772835,13.968002 13.968002,14.1772835 13.7013353,14.3198984 C13.4346686,14.4625133 13.1701617,14.5384615 12.4407373,14.5384615 L4.17464733,14.5384615 C3.44522291,14.5384615 3.18071599,14.4625133 2.91404932,14.3198984 C2.64738265,14.1772835 2.43810109,13.968002 2.2954862,13.7013353 C2.1528713,13.4346686 2.07692308,13.1701617 2.07692308,12.4407373 L2.07692308,4.17464733 C2.07692308,3.44522291 2.1528713,3.18071599 2.2954862,2.91404932 C2.43810109,2.64738265 2.64738265,2.43810109 2.91404932,2.2954862 C3.18071599,2.1528713 3.44522291,2.07692308 4.17464733,2.07692308 Z" id="Rectangle-6-Copy-3" stroke="#000000"></path>
                        <circle id="Oval-23" stroke="#000000" cx="8.30769231" cy="8.30769231" r="6.92307692"></circle>
                    </g>
                </g>
                <line x1="4.15384615" y1="2.49230769" x2="13.2923077" y2="14.1230769" id="路径-2" stroke="#1F1F1F" stroke-width="1.5"></line>
                <path d="M4.27495484,4.10769231 C5.10338196,4.10769231 5.77495484,3.43611943 5.77495484,2.60769231 C5.77495484,1.77926518 5.10338196,1.10769231 4.27495484,1.10769231 C3.44652771,1.10769231 2.77495484,1.77926518 2.77495484,2.60769231 C2.77495484,3.43611943 3.44652771,4.10769231 4.27495484,4.10769231 Z" id="椭圆形" fill="#1F1F1F"></path>
                <path d="M13.0455392,15.1846154 C13.8739663,15.1846154 14.5455392,14.5130425 14.5455392,13.6846154 C14.5455392,12.8561883 13.8739663,12.1846154 13.0455392,12.1846154 C12.2171121,12.1846154 11.5455392,12.8561883 11.5455392,13.6846154 C11.5455392,14.5130425 12.2171121,15.1846154 13.0455392,15.1846154 Z" id="椭圆形备份-6" fill="#1F1F1F"></path>
            </g>
        </g>
    </g>
</svg>