<svg viewBox="0 0 100 100" xmlns="http://www.w3.org/2000/svg"><g fill="#1F1F1F" fill-rule="evenodd"><path d="M8.333 91.667V8.333h8.334c9.204 0 16.666 7.462 16.666 16.667v50c0 9.205-7.462 16.667-16.666 16.667H8.333zm9.306-8.39a8.337 8.337 0 0 0 7.305-7.305L25 75V25a8.335 8.335 0 0 0-7.361-8.277H8.354v66.554h9.285zM91.667 91.667V8.333h-8.334c-9.204 0-16.666 7.462-16.666 16.667v50c0 9.205 7.462 16.667 16.666 16.667h8.334zm-9.306-8.39a8.337 8.337 0 0 1-7.305-7.305L75 75V25a8.335 8.335 0 0 1 7.361-8.277h9.285v66.554H82.36z" fill-rule="nonzero"/><path d="M54.167 75h-8.333V25h8.333z"/></g></svg>
