<svg viewBox="0 0 100 100" xmlns="http://www.w3.org/2000/svg"><g fill="#1F1F1F" fill-rule="evenodd"><path d="M91.667 91.667H8.333v-8.334c0-9.204 7.462-16.666 16.667-16.666h50c9.205 0 16.667 7.462 16.667 16.666v8.334zm-8.39-9.306a8.337 8.337 0 0 0-7.305-7.305L75 75H25a8.335 8.335 0 0 0-8.277 7.361v9.285h66.554V82.36zM91.667 8.333H8.333v8.334c0 9.204 7.462 16.666 16.667 16.666h50c9.205 0 16.667-7.462 16.667-16.666V8.333zm-8.39 9.306a8.337 8.337 0 0 1-7.305 7.305L75 25H25a8.335 8.335 0 0 1-8.277-7.361V8.354h66.554v9.285z" fill-rule="nonzero"/><path d="M75 45.833v8.333H25v-8.333z"/></g></svg>
