<svg width="100" height="100" viewBox="0 0 100 100" xmlns="http://www.w3.org/2000/svg"><g fill="#1F1F1F" fill-rule="evenodd"><path d="M8.333 67.018h8.333v25H8.333zM83.333 67.018h8.333v25h-8.333z"/><path d="M25 83.717v8.3H8.333v-8.3zM91.667 83.717v8.3H75v-8.3zM25 83.75h50v8.268H25zM8.333 33.684h8.333v-25H8.333zM83.333 33.684h8.333v-25h-8.333z"/><path d="M25 17.033V8.685H8.333v8.348zM91.667 17.033V8.685H75v8.348zM25 17.032h50V8.684H25zM8.333 33.685h8.333v33.333H8.333zM83.333 33.685h8.333v33.333h-8.333z"/></g></svg>