
<svg viewBox="0 0 50 50" data-icon="fast-forward" width="1em" height="1em" fill="currentColor" aria-hidden="true">
    <g id="页面-1" stroke="none" stroke-width="1" fill="none" fill-rule="evenodd">
        <g id="编组-10">
            <rect id="矩形1" fill="#1F1F1F" x="1.5" y="11.4332128" width="1.5" height="4.5"></rect>
            <rect id="矩形备份-233" fill="#1F1F1F" x="15" y="11.4332128" width="1.5" height="4.5"></rect>
            <polygon id="矩形备份1222sa" fill="#1F1F1F" transform="translate(3.000000, 15.186171) rotate(-270.000000) translate(-3.000000, -15.186171) " points="2.2529583 13.6861711 3.7470417 13.6861711 3.7470417 16.6861711 2.2529583 16.6861711"></polygon>
            <polygon id="矩形备份-3122" fill="#1F1F1F" transform="translate(15.000000, 15.186171) rotate(-270.000000) translate(-15.000000, -15.186171) " points="14.2529583 13.6861711 15.7470417 13.6861711 15.7470417 16.6861711 14.2529583 16.6861711"></polygon>
            <polygon id="矩3333形" fill="#1F1F1F" points="4.5 14.445046 13.5 14.445046 13.5 15.9332128 4.5 15.9332128"></polygon>
            <rect id="矩形333334" fill="#1F1F1F" transform="translate(2.250000, 3.183213) scale(1, -1) translate(-2.250000, -3.183213) " x="1.5" y="0.933212768" width="1.5" height="4.5"></rect>
            <rect id="矩形备份-2" fill="#1F1F1F" transform="translate(15.750000, 3.183213) scale(1, -1) translate(-15.750000, -3.183213) " x="15" y="0.933212768" width="1.5" height="4.5"></rect>
            <rect id="矩形备份" fill="#1F1F1F" transform="translate(3.000000, 1.684572) scale(1, -1) rotate(-270.000000) translate(-3.000000, -1.684572) " x="2.24864042" y="0.184572343" width="1.50271915" height="3"></rect>
            <rect id="矩形备份-3" fill="#1F1F1F" transform="translate(15.000000, 1.684572) scale(1, -1) rotate(-270.000000) translate(-15.000000, -1.684572) " x="14.2486404" y="0.184572343" width="1.50271915" height="3"></rect>
            <rect id="矩形5566" fill="#1F1F1F" transform="translate(9.000000, 1.684572) scale(1, -1) translate(-9.000000, -1.684572) " x="4.5" y="0.933212768" width="9" height="1.50271915"></rect>
            <rect id="矩形77889" fill="#1F1F1F" x="1.5" y="5.43321277" width="1.5" height="6"></rect>
            <rect id="矩形备份-4" fill="#1F1F1F" x="15" y="5.43321277" width="1.5" height="6"></rect>
        </g>
    </g>
</svg>