<svg width="100" height="100" viewBox="0 0 100 100" xmlns="http://www.w3.org/2000/svg"><g fill="none" fill-rule="evenodd"><g stroke="#1F1F1F" stroke-width="6.944"><path d="M49.983 4.19v13.19M76.42 11.41l-7.753 10.67M93.798 34.018l-12.543 4.076M93.995 62.005l-12.544-4.076M78.455 85.548l-7.753-10.671M49.983 94.073v-13.19M21.706 85.548l7.753-10.671M6.14 62.005l12.545-4.076M6.273 34.019l12.544 4.075M23.87 11.41l7.753 10.67M49.983 26.557a22.496 22.496 0 0 1 15.957 6.61 22.496 22.496 0 0 1 6.61 15.957 22.496 22.496 0 0 1-6.61 15.957 22.496 22.496 0 0 1-15.957 6.61 22.496 22.496 0 0 1-15.957-6.61 22.496 22.496 0 0 1-6.61-15.957 22.496 22.496 0 0 1 6.61-15.957 22.496 22.496 0 0 1 15.957-6.61z"/></g></g></svg>