
<svg viewBox="0 0 1024 1024" data-icon="fast-forward" width="1em" height="1em" fill="currentColor" aria-hidden="true">
    <g id="页面-1" stroke="none" stroke-width="1" fill="none" fill-rule="evenodd">
        <g id="编组-69">
            <g id="编组-62">
                <rect id="矩形" fill="#D8D8D8" opacity="0" x="0" y="0" width="18" height="18"></rect>
                <g id="编组-74" transform="translate(2.125000, 1.412546)" stroke="#1F1F1F">
                    <line x1="6.875" y1="0.958765086" x2="6.875" y2="2.85827823" id="路径-5"></line>
                    <line x1="10.1239573" y1="1.81723426" x2="10.1239573" y2="3.71674741" id="路径-5" transform="translate(10.123957, 2.766991) rotate(36.000000) translate(-10.123957, -2.766991) "></line>
                    <line x1="12.2818535" y1="4.59833315" x2="12.2818535" y2="6.4978463" id="路径-5" transform="translate(12.281853, 5.548090) rotate(72.000000) translate(-12.281853, -5.548090) "></line>
                    <line x1="12.3101953" y1="8.04181359" x2="12.3101953" y2="9.94132674" id="路径-5" transform="translate(12.310195, 8.991570) rotate(108.000000) translate(-12.310195, -8.991570) "></line>
                    <line x1="10.4170811" y1="10.9574588" x2="10.4170811" y2="12.856972" id="路径-5" transform="translate(10.417081, 11.907215) rotate(144.000000) translate(-10.417081, -11.907215) "></line>
                    <line x1="6.875" y1="12.0039387" x2="6.875" y2="13.9034519" id="路径-5" transform="translate(6.875000, 12.953695) rotate(180.000000) translate(-6.875000, -12.953695) "></line>
                    <line x1="3.36098341" y1="10.9574588" x2="3.36098341" y2="12.856972" id="路径-5" transform="translate(3.360983, 11.907215) rotate(216.000000) translate(-3.360983, -11.907215) "></line>
                    <line x1="1.46427511" y1="8.04181359" x2="1.46427511" y2="9.94132674" id="路径-5" transform="translate(1.464275, 8.991570) rotate(252.000000) translate(-1.464275, -8.991570) "></line>
                    <line x1="1.48333006" y1="4.59833315" x2="1.48333006" y2="6.4978463" id="路径-5" transform="translate(1.483330, 5.548090) rotate(288.000000) translate(-1.483330, -5.548090) "></line>
                    <line x1="3.67260443" y1="1.81723426" x2="3.67260443" y2="3.71674741" id="路径-5" transform="translate(3.672604, 2.766991) rotate(324.000000) translate(-3.672604, -2.766991) "></line>
                </g>
            </g>
            <g id="编组-2" transform="translate(5.000000, 5.000000)" stroke="#1F1F1F">
                <path d="M4,0.592627558 C4.89746272,0.592627558 5.70996272,0.956396199 6.29809704,1.54453052 C6.88623136,2.13266484 7.25,2.94516484 7.25,3.84262756 C7.25,4.74009028 6.88623136,5.55259028 6.29809704,6.1407246 C5.70996272,6.72885892 4.89746272,7.09262756 4,7.09262756 C3.10253728,7.09262756 2.29003728,6.72885892 1.70190296,6.1407246 C1.11376864,5.55259028 0.75,4.74009028 0.75,3.84262756 C0.75,2.94516484 1.11376864,2.13266484 1.70190296,1.54453052 C2.29003728,0.956396199 3.10253728,0.592627558 4,0.592627558 Z" id="椭圆形备份"></path>
            </g>
        </g>
    </g>
</svg>