
<svg viewBox="0 0 1024 1024" data-icon="fast-forward" width="1em" height="1em" fill="currentColor" aria-hidden="true">
    <g id="页面-1" stroke="none" stroke-width="1" fill="none" fill-rule="evenodd">
        <g id="编组-72">
            <g id="编组" opacity="0" stroke-width="0.5">
                <g id="线">
                    <rect id="Rectangle-6-Copy" stroke="#A7B4C5" x="0.25" y="0.25" width="17.5" height="17.5"></rect>
                    <polygon id="Rectangle-57" stroke="#A7B4C5" transform="translate(9.000000, 9.000000) rotate(-270.000000) translate(-9.000000, -9.000000) " points="6 1.5 12 1.5 12 16.5 6 16.5"></polygon>
                    <polygon id="Rectangle-57-Copy-2" stroke="#A7B4C5" points="6 1.5 12 1.5 12 16.5 6 16.5"></polygon>
                    <polygon id="Rectangle-57-Copy-2备份" stroke="#A7B4C5" points="6 1.5 12 1.5 12 16.5 6 16.5"></polygon>
                    <line x1="0.409090909" y1="0.409090909" x2="17.5909091" y2="17.5909091" id="Path-7" stroke="#A7B4C5"></line>
                    <line x1="0.409090909" y1="0.409090909" x2="17.5909091" y2="17.5909091" id="Path-7-Copy" stroke="#A7B4C5" transform="translate(9.000000, 9.000000) scale(-1, 1) translate(-9.000000, -9.000000) "></line>
                    <rect id="Rectangle-6-Copy-7" stroke="#A7B4C5" x="3" y="1.5" width="12" height="15" rx="1.81818182"></rect>
                    <rect id="Rectangle-6-Copy-8" stroke="#A7B4C5" x="1.5" y="3.05172414" width="15" height="11.8965517" rx="1.81818182"></rect>
                    <path d="M4.58080473,2.25 L13.4191953,2.25 C14.2296669,2.25 14.5235634,2.33438692 14.8198597,2.49284791 C15.116156,2.65130891 15.3486911,2.88384397 15.5071521,3.18014027 C15.6656131,3.47643657 15.75,3.77033315 15.75,4.58080473 L15.75,13.4191953 C15.75,14.2296669 15.6656131,14.5235634 15.5071521,14.8198597 C15.3486911,15.116156 15.116156,15.3486911 14.8198597,15.5071521 C14.5235634,15.6656131 14.2296669,15.75 13.4191953,15.75 L4.58080473,15.75 C3.77033315,15.75 3.47643657,15.6656131 3.18014027,15.5071521 C2.88384397,15.3486911 2.65130891,15.116156 2.49284791,14.8198597 C2.33438692,14.5235634 2.25,14.2296669 2.25,13.4191953 L2.25,4.58080473 C2.25,3.77033315 2.33438692,3.47643657 2.49284791,3.18014027 C2.65130891,2.88384397 2.88384397,2.65130891 3.18014027,2.49284791 C3.47643657,2.33438692 3.77033315,2.25 4.58080473,2.25 Z" id="Rectangle-6-Copy-3" stroke="#000000"></path>
                    <circle id="Oval-23" stroke="#000000" cx="9" cy="9" r="7.5"></circle>
                </g>
            </g>
            <g id="编组-2" transform="translate(2.636364, 5.045455)" fill="#1F1F1F">
                <rect id="矩形" x="0.363636364" y="0.954545455" width="12" height="1"></rect>
                <polygon id="矩形备份-3" points="6.36363636 5.95597978 12.3636364 5.95597978 12.3636364 6.95597978 6.36363636 6.95597978"></polygon>
            </g>
        </g>
    </g>
</svg>