<svg width="100" height="100" viewBox="0 0 100 100" xmlns="http://www.w3.org/2000/svg"><g fill="#1F1F1F" fill-rule="evenodd"><path d="M87.087 3.333v6.605H12.913V3.333zM87.087 90.062v6.605H12.913v-6.605zM49.38 26.597h1.2a3.028 3.028 0 0 1 3.027 3.027v40.303a3.028 3.028 0 0 1-3.028 3.028H49.38a3.028 3.028 0 0 1-3.028-3.028V29.624a3.028 3.028 0 0 1 3.028-3.027z"/><path d="M50.884 16.083L63.79 32.215a.927.927 0 0 1-.724 1.506H37.255a.927.927 0 0 1-.724-1.506l12.905-16.132a.927.927 0 0 1 1.448 0zM50.884 83.947L63.79 67.815a.927.927 0 0 0-.724-1.507H37.255a.927.927 0 0 0-.724 1.507l12.905 16.132a.927.927 0 0 0 1.448 0z"/></g></svg>