
<svg viewBox="0 0 1024 1024" data-icon="fast-forward" width="1em" height="1em" fill="currentColor" aria-hidden="true">
    <g id="页面-1" stroke="none" stroke-width="1" fill="none" fill-rule="evenodd">
        <g id="编组-39">
            <rect id="图标容器" fill="#D8D8D8" opacity="0" x="0" y="0" width="18" height="18"></rect>
            <g id="编组-38" transform="translate(3.011419, 0.868065)" fill="#1F1F1F">
                <polygon id="矩形备份" transform="translate(6.000000, 0.750000) rotate(-270.000000) translate(-6.000000, -0.750000) " points="5.46571815 -5.25 6.53428185 -5.25 6.53428185 6.75 5.46571815 6.75"></polygon>
                <polygon id="矩形备份-15" transform="translate(6.000000, 14.781122) rotate(-270.000000) translate(-6.000000, -14.781122) " points="5.46571815 8.78112193 6.53428185 8.78112193 6.53428185 20.7811219 5.46571815 20.7811219"></polygon>
                <g id="编组-2" transform="translate(3.625910, 2.131935)">
                    <path d="M2.27378502,1.84735122 L2.46778651,1.84735122 C2.73830305,1.84735122 2.95760004,2.06664821 2.95760004,2.33716475 L2.95760004,8.85753769 C2.95760004,9.12805423 2.73830305,9.34735122 2.46778651,9.34735122 L2.27378502,9.34735122 C2.00326848,9.34735122 1.78397149,9.12805423 1.78397149,8.85753769 L1.78397149,2.33716475 C1.78397149,2.06664821 2.00326848,1.84735122 2.27378502,1.84735122 Z" id="矩形"></path>
                    <path d="M2.51713032,0.146412902 L4.60503659,2.75629574 C4.65678803,2.82098503 4.64629982,2.91537889 4.58161053,2.96713032 C4.55501357,2.98840789 4.521967,3 4.48790627,3 L0.312093727,3 C0.229251015,3 0.162093727,2.93284271 0.162093727,2.85 C0.162093727,2.81593928 0.17368584,2.7828927 0.194963406,2.75629574 L2.28286968,0.146412902 C2.33462111,0.0817236115 2.42901497,0.0712354053 2.49370426,0.122986837 C2.50235396,0.129906602 2.51021056,0.137763196 2.51713032,0.146412902 Z" id="三角形"></path>
                    <path d="M2.51713032,8.41844968 L4.60503659,11.0283325 C4.65678803,11.0930218 4.64629982,11.1874157 4.58161053,11.2391671 C4.55501357,11.2604447 4.521967,11.2720368 4.48790627,11.2720368 L0.312093727,11.2720368 C0.229251015,11.2720368 0.162093727,11.2048795 0.162093727,11.1220368 C0.162093727,11.0879761 0.17368584,11.0549295 0.194963406,11.0283325 L2.28286968,8.41844968 C2.33462111,8.35376039 2.42901497,8.34327218 2.49370426,8.39502361 C2.50235396,8.40194338 2.51021056,8.40979997 2.51713032,8.41844968 Z" id="三角形备份-2" transform="translate(2.400000, 9.772037) scale(1, -1) translate(-2.400000, -9.772037) "></path>
                </g>
            </g>
        </g>
    </g>
</svg>