<svg width="100" height="100" viewBox="0 0 100 100" xmlns="http://www.w3.org/2000/svg"><g fill="none" fill-rule="evenodd"><path fill="#1F1F1F" fill-rule="nonzero" d="M26.938 46.015H73v7.667H26.938z"/><path d="M20.02 49.401L33.358 38.73a.767.767 0 0 1 1.245.598v21.344a.767.767 0 0 1-1.245.598L20.019 50.6a.767.767 0 0 1 0-1.198zM79.918 49.401L66.578 38.73a.767.767 0 0 0-1.245.598v21.344a.767.767 0 0 0 1.246.598L79.919 50.6a.767.767 0 0 0 0-1.198z" fill="#1F1F1F"/><path d="M7.833 19.333c0-3.175 1.288-6.05 3.369-8.131a11.464 11.464 0 0 1 8.131-3.369h61.334c3.175 0 6.05 1.288 8.131 3.369a11.464 11.464 0 0 1 3.369 8.131v61.334c0 3.175-1.288 6.05-3.369 8.131a11.464 11.464 0 0 1-8.131 3.369H19.333c-3.175 0-6.05-1.288-8.131-3.369a11.464 11.464 0 0 1-3.369-8.131z" stroke="#1F1F1F" stroke-width="7.667"/></g></svg>