
<svg viewBox="0 0 1024 1024" data-icon="fast-forward" width="1em" height="1em" fill="currentColor" aria-hidden="true">
    <g id="页面-1" stroke="none" stroke-width="1" fill="none" fill-rule="evenodd">
        <g id="编组-75">
            <g id="编组" opacity="0" stroke-width="0.5">
                <g id="线">
                    <rect id="Rectangle-6-Copy" stroke="#A7B4C5" x="0.25" y="0.25" width="17.5" height="17.5"></rect>
                    <polygon id="Rectangle-57" stroke="#A7B4C5" transform="translate(9.000000, 9.000000) rotate(-270.000000) translate(-9.000000, -9.000000) " points="6 1.5 12 1.5 12 16.5 6 16.5"></polygon>
                    <polygon id="Rectangle-57-Copy-2" stroke="#A7B4C5" points="6 1.5 12 1.5 12 16.5 6 16.5"></polygon>
                    <polygon id="Rectangle-57-Copy-2备份" stroke="#A7B4C5" points="6 1.5 12 1.5 12 16.5 6 16.5"></polygon>
                    <line x1="0.409090909" y1="0.409090909" x2="17.5909091" y2="17.5909091" id="Path-7" stroke="#A7B4C5"></line>
                    <line x1="0.409090909" y1="0.409090909" x2="17.5909091" y2="17.5909091" id="Path-7-Copy" stroke="#A7B4C5" transform="translate(9.000000, 9.000000) scale(-1, 1) translate(-9.000000, -9.000000) "></line>
                    <rect id="Rectangle-6-Copy-7" stroke="#A7B4C5" x="3" y="1.5" width="12" height="15" rx="1.81818182"></rect>
                    <rect id="Rectangle-6-Copy-8" stroke="#A7B4C5" x="1.5" y="3.05172414" width="15" height="11.8965517" rx="1.81818182"></rect>
                    <path d="M4.58080473,2.25 L13.4191953,2.25 C14.2296669,2.25 14.5235634,2.33438692 14.8198597,2.49284791 C15.116156,2.65130891 15.3486911,2.88384397 15.5071521,3.18014027 C15.6656131,3.47643657 15.75,3.77033315 15.75,4.58080473 L15.75,13.4191953 C15.75,14.2296669 15.6656131,14.5235634 15.5071521,14.8198597 C15.3486911,15.116156 15.116156,15.3486911 14.8198597,15.5071521 C14.5235634,15.6656131 14.2296669,15.75 13.4191953,15.75 L4.58080473,15.75 C3.77033315,15.75 3.47643657,15.6656131 3.18014027,15.5071521 C2.88384397,15.3486911 2.65130891,15.116156 2.49284791,14.8198597 C2.33438692,14.5235634 2.25,14.2296669 2.25,13.4191953 L2.25,4.58080473 C2.25,3.77033315 2.33438692,3.47643657 2.49284791,3.18014027 C2.65130891,2.88384397 2.88384397,2.65130891 3.18014027,2.49284791 C3.47643657,2.33438692 3.77033315,2.25 4.58080473,2.25 Z" id="Rectangle-6-Copy-3" stroke="#000000"></path>
                    <circle id="Oval-23" stroke="#000000" cx="9" cy="9" r="7.5"></circle>
                </g>
            </g>
            <path d="M13,3.5 C13.4142136,3.5 13.7892136,3.66789322 14.0606602,3.93933983 C14.3321068,4.21078644 14.5,4.58578644 14.5,5 L14.5,5 L14.5,13 C14.5,13.4142136 14.3321068,13.7892136 14.0606602,14.0606602 C13.7892136,14.3321068 13.4142136,14.5 13,14.5 L13,14.5 L5,14.5 C4.58578644,14.5 4.21078644,14.3321068 3.93933983,14.0606602 C3.66789322,13.7892136 3.5,13.4142136 3.5,13 L3.5,13 L3.5,5 C3.5,4.58578644 3.66789322,4.21078644 3.93933983,3.93933983 C4.21078644,3.66789322 4.58578644,3.5 5,3.5 L5,3.5 Z" id="矩形" stroke="#1F1F1F"></path>
            <g id="编组-2" transform="translate(8.807976, 8.829330) rotate(-90.000000) translate(-8.807976, -8.829330) translate(6.807976, 4.329330)">
                <line x1="1.84904905" y1="1.68387197" x2="1.84904905" y2="7.69202413" id="路径-4" stroke="#1F1F1F"></line>
                <path d="M1.90741696,0.781480575 L3.29935448,2.52140247 C3.33385543,2.56452866 3.32686329,2.6274579 3.2837371,2.66195885 C3.2660058,2.6761439 3.24397475,2.68387197 3.2212676,2.68387197 L0.437392566,2.68387197 C0.382164091,2.68387197 0.337392566,2.63910045 0.337392566,2.58387197 C0.337392566,2.56116482 0.345120641,2.53913377 0.359305685,2.52140247 L1.7512432,0.781480575 C1.78574416,0.738354381 1.84867339,0.731362244 1.89179959,0.765863198 C1.89756606,0.770476375 1.90280379,0.775714104 1.90741696,0.781480575 Z" id="三角形" fill="#1F1F1F"></path>
                <path d="M1.90741696,6.78963273 L3.29935448,8.52955463 C3.33385543,8.57268082 3.32686329,8.63561006 3.2837371,8.67011101 C3.2660058,8.68429606 3.24397475,8.69202413 3.2212676,8.69202413 L0.437392566,8.69202413 C0.382164091,8.69202413 0.337392566,8.64725261 0.337392566,8.59202413 C0.337392566,8.56931698 0.345120641,8.54728593 0.359305685,8.52955463 L1.7512432,6.78963273 C1.78574416,6.74650654 1.84867339,6.7395144 1.89179959,6.77401536 C1.89756606,6.77862853 1.90280379,6.78386626 1.90741696,6.78963273 Z" id="三角形备份" fill="#1F1F1F" transform="translate(1.829330, 7.692024) scale(1, -1) translate(-1.829330, -7.692024) "></path>
            </g>
        </g>
    </g>
</svg>